<?xml version="1.0" encoding="utf-8" standalone="no"?>
<!DOCTYPE svg PUBLIC "-//W3C//DTD SVG 1.1//EN"
  "http://www.w3.org/Graphics/SVG/1.1/DTD/svg11.dtd">
<svg xmlns:xlink="http://www.w3.org/1999/xlink" width="408.10125pt" height="312.393346pt" viewBox="0 0 408.10125 312.393346" xmlns="http://www.w3.org/2000/svg" version="1.1">
 <metadata>
  <rdf:RDF xmlns:dc="http://purl.org/dc/elements/1.1/" xmlns:cc="http://creativecommons.org/ns#" xmlns:rdf="http://www.w3.org/1999/02/22-rdf-syntax-ns#">
   <cc:Work>
    <dc:type rdf:resource="http://purl.org/dc/dcmitype/StillImage"/>
    <dc:date>2022-04-28T14:43:09.889363</dc:date>
    <dc:format>image/svg+xml</dc:format>
    <dc:creator>
     <cc:Agent>
      <dc:title>Matplotlib v3.5.1, https://matplotlib.org/</dc:title>
     </cc:Agent>
    </dc:creator>
   </cc:Work>
  </rdf:RDF>
 </metadata>
 <defs>
  <style type="text/css">*{stroke-linejoin: round; stroke-linecap: butt}</style>
 </defs>
 <g id="figure_1">
  <g id="patch_1">
   <path d="M 0 312.393346 
L 408.10125 312.393346 
L 408.10125 0 
L 0 0 
z
" style="fill: #ffffff"/>
  </g>
  <g id="axes_1">
   <g id="patch_2">
    <path d="M 43.78125 274.837096 
L 400.90125 274.837096 
L 400.90125 8.725096 
L 43.78125 8.725096 
z
" style="fill: #ffffff"/>
   </g>
   <g id="patch_3">
    <path d="M 61.117967 274.837096 
L 62.727192 274.837096 
L 62.727192 267.777486 
L 61.117967 267.777486 
z
" clip-path="url(#p01e5c641f0)" style="fill: #1f77b4"/>
   </g>
   <g id="patch_4">
    <path d="M 62.727192 274.837096 
L 64.336418 274.837096 
L 64.336418 262.835759 
L 62.727192 262.835759 
z
" clip-path="url(#p01e5c641f0)" style="fill: #1f77b4"/>
   </g>
   <g id="patch_5">
    <path d="M 64.336418 274.837096 
L 65.945643 274.837096 
L 65.945643 260.011915 
L 64.336418 260.011915 
z
" clip-path="url(#p01e5c641f0)" style="fill: #1f77b4"/>
   </g>
   <g id="patch_6">
    <path d="M 65.945643 274.837096 
L 67.554868 274.837096 
L 67.554868 262.129798 
L 65.945643 262.129798 
z
" clip-path="url(#p01e5c641f0)" style="fill: #1f77b4"/>
   </g>
   <g id="patch_7">
    <path d="M 67.554868 274.837096 
L 69.164093 274.837096 
L 69.164093 247.304617 
L 67.554868 247.304617 
z
" clip-path="url(#p01e5c641f0)" style="fill: #1f77b4"/>
   </g>
   <g id="patch_8">
    <path d="M 69.164093 274.837096 
L 70.773318 274.837096 
L 70.773318 251.540383 
L 69.164093 251.540383 
z
" clip-path="url(#p01e5c641f0)" style="fill: #1f77b4"/>
   </g>
   <g id="patch_9">
    <path d="M 70.773318 274.837096 
L 72.382543 274.837096 
L 72.382543 243.774812 
L 70.773318 243.774812 
z
" clip-path="url(#p01e5c641f0)" style="fill: #1f77b4"/>
   </g>
   <g id="patch_10">
    <path d="M 72.382543 274.837096 
L 73.991768 274.837096 
L 73.991768 246.598656 
L 72.382543 246.598656 
z
" clip-path="url(#p01e5c641f0)" style="fill: #1f77b4"/>
   </g>
   <g id="patch_11">
    <path d="M 73.991768 274.837096 
L 75.600993 274.837096 
L 75.600993 245.892695 
L 73.991768 245.892695 
z
" clip-path="url(#p01e5c641f0)" style="fill: #1f77b4"/>
   </g>
   <g id="patch_12">
    <path d="M 75.600993 274.837096 
L 77.210219 274.837096 
L 77.210219 243.774812 
L 75.600993 243.774812 
z
" clip-path="url(#p01e5c641f0)" style="fill: #1f77b4"/>
   </g>
   <g id="patch_13">
    <path d="M 77.210219 274.837096 
L 78.819444 274.837096 
L 78.819444 238.833085 
L 77.210219 238.833085 
z
" clip-path="url(#p01e5c641f0)" style="fill: #1f77b4"/>
   </g>
   <g id="patch_14">
    <path d="M 78.819444 274.837096 
L 80.428669 274.837096 
L 80.428669 224.007904 
L 78.819444 224.007904 
z
" clip-path="url(#p01e5c641f0)" style="fill: #1f77b4"/>
   </g>
   <g id="patch_15">
    <path d="M 80.428669 274.837096 
L 82.037894 274.837096 
L 82.037894 228.24367 
L 80.428669 228.24367 
z
" clip-path="url(#p01e5c641f0)" style="fill: #1f77b4"/>
   </g>
   <g id="patch_16">
    <path d="M 82.037894 274.837096 
L 83.647119 274.837096 
L 83.647119 219.772138 
L 82.037894 219.772138 
z
" clip-path="url(#p01e5c641f0)" style="fill: #1f77b4"/>
   </g>
   <g id="patch_17">
    <path d="M 83.647119 274.837096 
L 85.256344 274.837096 
L 85.256344 216.242333 
L 83.647119 216.242333 
z
" clip-path="url(#p01e5c641f0)" style="fill: #1f77b4"/>
   </g>
   <g id="patch_18">
    <path d="M 85.256344 274.837096 
L 86.865569 274.837096 
L 86.865569 228.949631 
L 85.256344 228.949631 
z
" clip-path="url(#p01e5c641f0)" style="fill: #1f77b4"/>
   </g>
   <g id="patch_19">
    <path d="M 86.865569 274.837096 
L 88.474794 274.837096 
L 88.474794 227.537709 
L 86.865569 227.537709 
z
" clip-path="url(#p01e5c641f0)" style="fill: #1f77b4"/>
   </g>
   <g id="patch_20">
    <path d="M 88.474794 274.837096 
L 90.08402 274.837096 
L 90.08402 205.652918 
L 88.474794 205.652918 
z
" clip-path="url(#p01e5c641f0)" style="fill: #1f77b4"/>
   </g>
   <g id="patch_21">
    <path d="M 90.08402 274.837096 
L 91.693245 274.837096 
L 91.693245 216.242333 
L 90.08402 216.242333 
z
" clip-path="url(#p01e5c641f0)" style="fill: #1f77b4"/>
   </g>
   <g id="patch_22">
    <path d="M 91.693245 274.837096 
L 93.30247 274.837096 
L 93.30247 204.946957 
L 91.693245 204.946957 
z
" clip-path="url(#p01e5c641f0)" style="fill: #1f77b4"/>
   </g>
   <g id="patch_23">
    <path d="M 93.30247 274.837096 
L 94.911695 274.837096 
L 94.911695 196.475425 
L 93.30247 196.475425 
z
" clip-path="url(#p01e5c641f0)" style="fill: #1f77b4"/>
   </g>
   <g id="patch_24">
    <path d="M 94.911695 274.837096 
L 96.52092 274.837096 
L 96.52092 199.299269 
L 94.911695 199.299269 
z
" clip-path="url(#p01e5c641f0)" style="fill: #1f77b4"/>
   </g>
   <g id="patch_25">
    <path d="M 96.52092 274.837096 
L 98.130145 274.837096 
L 98.130145 205.652918 
L 96.52092 205.652918 
z
" clip-path="url(#p01e5c641f0)" style="fill: #1f77b4"/>
   </g>
   <g id="patch_26">
    <path d="M 98.130145 274.837096 
L 99.73937 274.837096 
L 99.73937 192.94562 
L 98.130145 192.94562 
z
" clip-path="url(#p01e5c641f0)" style="fill: #1f77b4"/>
   </g>
   <g id="patch_27">
    <path d="M 99.73937 274.837096 
L 101.348596 274.837096 
L 101.348596 196.475425 
L 99.73937 196.475425 
z
" clip-path="url(#p01e5c641f0)" style="fill: #1f77b4"/>
   </g>
   <g id="patch_28">
    <path d="M 101.348596 274.837096 
L 102.957821 274.837096 
L 102.957821 199.299269 
L 101.348596 199.299269 
z
" clip-path="url(#p01e5c641f0)" style="fill: #1f77b4"/>
   </g>
   <g id="patch_29">
    <path d="M 102.957821 274.837096 
L 104.567046 274.837096 
L 104.567046 179.532361 
L 102.957821 179.532361 
z
" clip-path="url(#p01e5c641f0)" style="fill: #1f77b4"/>
   </g>
   <g id="patch_30">
    <path d="M 104.567046 274.837096 
L 106.176271 274.837096 
L 106.176271 177.414478 
L 104.567046 177.414478 
z
" clip-path="url(#p01e5c641f0)" style="fill: #1f77b4"/>
   </g>
   <g id="patch_31">
    <path d="M 106.176271 274.837096 
L 107.785496 274.837096 
L 107.785496 188.003893 
L 106.176271 188.003893 
z
" clip-path="url(#p01e5c641f0)" style="fill: #1f77b4"/>
   </g>
   <g id="patch_32">
    <path d="M 107.785496 274.837096 
L 109.394721 274.837096 
L 109.394721 156.941609 
L 107.785496 156.941609 
z
" clip-path="url(#p01e5c641f0)" style="fill: #1f77b4"/>
   </g>
   <g id="patch_33">
    <path d="M 109.394721 274.837096 
L 111.003946 274.837096 
L 111.003946 155.529687 
L 109.394721 155.529687 
z
" clip-path="url(#p01e5c641f0)" style="fill: #1f77b4"/>
   </g>
   <g id="patch_34">
    <path d="M 111.003946 274.837096 
L 112.613171 274.837096 
L 112.613171 190.121776 
L 111.003946 190.121776 
z
" clip-path="url(#p01e5c641f0)" style="fill: #1f77b4"/>
   </g>
   <g id="patch_35">
    <path d="M 112.613171 274.837096 
L 114.222397 274.837096 
L 114.222397 176.708517 
L 112.613171 176.708517 
z
" clip-path="url(#p01e5c641f0)" style="fill: #1f77b4"/>
   </g>
   <g id="patch_36">
    <path d="M 114.222397 274.837096 
L 115.831622 274.837096 
L 115.831622 166.825063 
L 114.222397 166.825063 
z
" clip-path="url(#p01e5c641f0)" style="fill: #1f77b4"/>
   </g>
   <g id="patch_37">
    <path d="M 115.831622 274.837096 
L 117.440847 274.837096 
L 117.440847 181.650244 
L 115.831622 181.650244 
z
" clip-path="url(#p01e5c641f0)" style="fill: #1f77b4"/>
   </g>
   <g id="patch_38">
    <path d="M 117.440847 274.837096 
L 119.050072 274.837096 
L 119.050072 172.472751 
L 117.440847 172.472751 
z
" clip-path="url(#p01e5c641f0)" style="fill: #1f77b4"/>
   </g>
   <g id="patch_39">
    <path d="M 119.050072 274.837096 
L 120.659297 274.837096 
L 120.659297 142.116428 
L 119.050072 142.116428 
z
" clip-path="url(#p01e5c641f0)" style="fill: #1f77b4"/>
   </g>
   <g id="patch_40">
    <path d="M 120.659297 274.837096 
L 122.268522 274.837096 
L 122.268522 154.117765 
L 120.659297 154.117765 
z
" clip-path="url(#p01e5c641f0)" style="fill: #1f77b4"/>
   </g>
   <g id="patch_41">
    <path d="M 122.268522 274.837096 
L 123.877747 274.837096 
L 123.877747 156.235648 
L 122.268522 156.235648 
z
" clip-path="url(#p01e5c641f0)" style="fill: #1f77b4"/>
   </g>
   <g id="patch_42">
    <path d="M 123.877747 274.837096 
L 125.486973 274.837096 
L 125.486973 143.52835 
L 123.877747 143.52835 
z
" clip-path="url(#p01e5c641f0)" style="fill: #1f77b4"/>
   </g>
   <g id="patch_43">
    <path d="M 125.486973 274.837096 
L 127.096198 274.837096 
L 127.096198 155.529687 
L 125.486973 155.529687 
z
" clip-path="url(#p01e5c641f0)" style="fill: #1f77b4"/>
   </g>
   <g id="patch_44">
    <path d="M 127.096198 274.837096 
L 128.705423 274.837096 
L 128.705423 130.821052 
L 127.096198 130.821052 
z
" clip-path="url(#p01e5c641f0)" style="fill: #1f77b4"/>
   </g>
   <g id="patch_45">
    <path d="M 128.705423 274.837096 
L 130.314648 274.837096 
L 130.314648 118.113754 
L 128.705423 118.113754 
z
" clip-path="url(#p01e5c641f0)" style="fill: #1f77b4"/>
   </g>
   <g id="patch_46">
    <path d="M 130.314648 274.837096 
L 131.923873 274.837096 
L 131.923873 139.998545 
L 130.314648 139.998545 
z
" clip-path="url(#p01e5c641f0)" style="fill: #1f77b4"/>
   </g>
   <g id="patch_47">
    <path d="M 131.923873 274.837096 
L 133.533098 274.837096 
L 133.533098 132.938935 
L 131.923873 132.938935 
z
" clip-path="url(#p01e5c641f0)" style="fill: #1f77b4"/>
   </g>
   <g id="patch_48">
    <path d="M 133.533098 274.837096 
L 135.142323 274.837096 
L 135.142323 101.876651 
L 133.533098 101.876651 
z
" clip-path="url(#p01e5c641f0)" style="fill: #1f77b4"/>
   </g>
   <g id="patch_49">
    <path d="M 135.142323 274.837096 
L 136.751548 274.837096 
L 136.751548 121.643559 
L 135.142323 121.643559 
z
" clip-path="url(#p01e5c641f0)" style="fill: #1f77b4"/>
   </g>
   <g id="patch_50">
    <path d="M 136.751548 274.837096 
L 138.360774 274.837096 
L 138.360774 141.410467 
L 136.751548 141.410467 
z
" clip-path="url(#p01e5c641f0)" style="fill: #1f77b4"/>
   </g>
   <g id="patch_51">
    <path d="M 138.360774 274.837096 
L 139.969999 274.837096 
L 139.969999 137.174701 
L 138.360774 137.174701 
z
" clip-path="url(#p01e5c641f0)" style="fill: #1f77b4"/>
   </g>
   <g id="patch_52">
    <path d="M 139.969999 274.837096 
L 141.579224 274.837096 
L 141.579224 127.291247 
L 139.969999 127.291247 
z
" clip-path="url(#p01e5c641f0)" style="fill: #1f77b4"/>
   </g>
   <g id="patch_53">
    <path d="M 141.579224 274.837096 
L 143.188449 274.837096 
L 143.188449 132.232974 
L 141.579224 132.232974 
z
" clip-path="url(#p01e5c641f0)" style="fill: #1f77b4"/>
   </g>
   <g id="patch_54">
    <path d="M 143.188449 274.837096 
L 144.797674 274.837096 
L 144.797674 120.231637 
L 143.188449 120.231637 
z
" clip-path="url(#p01e5c641f0)" style="fill: #1f77b4"/>
   </g>
   <g id="patch_55">
    <path d="M 144.797674 274.837096 
L 146.406899 274.837096 
L 146.406899 108.2303 
L 144.797674 108.2303 
z
" clip-path="url(#p01e5c641f0)" style="fill: #1f77b4"/>
   </g>
   <g id="patch_56">
    <path d="M 146.406899 274.837096 
L 148.016124 274.837096 
L 148.016124 115.995871 
L 146.406899 115.995871 
z
" clip-path="url(#p01e5c641f0)" style="fill: #1f77b4"/>
   </g>
   <g id="patch_57">
    <path d="M 148.016124 274.837096 
L 149.62535 274.837096 
L 149.62535 82.109743 
L 148.016124 82.109743 
z
" clip-path="url(#p01e5c641f0)" style="fill: #1f77b4"/>
   </g>
   <g id="patch_58">
    <path d="M 149.62535 274.837096 
L 151.234575 274.837096 
L 151.234575 128.703169 
L 149.62535 128.703169 
z
" clip-path="url(#p01e5c641f0)" style="fill: #1f77b4"/>
   </g>
   <g id="patch_59">
    <path d="M 151.234575 274.837096 
L 152.8438 274.837096 
L 152.8438 115.28991 
L 151.234575 115.28991 
z
" clip-path="url(#p01e5c641f0)" style="fill: #1f77b4"/>
   </g>
   <g id="patch_60">
    <path d="M 152.8438 274.837096 
L 154.453025 274.837096 
L 154.453025 88.463392 
L 152.8438 88.463392 
z
" clip-path="url(#p01e5c641f0)" style="fill: #1f77b4"/>
   </g>
   <g id="patch_61">
    <path d="M 154.453025 274.837096 
L 156.06225 274.837096 
L 156.06225 92.699158 
L 154.453025 92.699158 
z
" clip-path="url(#p01e5c641f0)" style="fill: #1f77b4"/>
   </g>
   <g id="patch_62">
    <path d="M 156.06225 274.837096 
L 157.671475 274.837096 
L 157.671475 106.112417 
L 156.06225 106.112417 
z
" clip-path="url(#p01e5c641f0)" style="fill: #1f77b4"/>
   </g>
   <g id="patch_63">
    <path d="M 157.671475 274.837096 
L 159.2807 274.837096 
L 159.2807 79.285899 
L 157.671475 79.285899 
z
" clip-path="url(#p01e5c641f0)" style="fill: #1f77b4"/>
   </g>
   <g id="patch_64">
    <path d="M 159.2807 274.837096 
L 160.889925 274.837096 
L 160.889925 94.817041 
L 159.2807 94.817041 
z
" clip-path="url(#p01e5c641f0)" style="fill: #1f77b4"/>
   </g>
   <g id="patch_65">
    <path d="M 160.889925 274.837096 
L 162.499151 274.837096 
L 162.499151 89.875314 
L 160.889925 89.875314 
z
" clip-path="url(#p01e5c641f0)" style="fill: #1f77b4"/>
   </g>
   <g id="patch_66">
    <path d="M 162.499151 274.837096 
L 164.108376 274.837096 
L 164.108376 75.050133 
L 162.499151 75.050133 
z
" clip-path="url(#p01e5c641f0)" style="fill: #1f77b4"/>
   </g>
   <g id="patch_67">
    <path d="M 164.108376 274.837096 
L 165.717601 274.837096 
L 165.717601 101.17069 
L 164.108376 101.17069 
z
" clip-path="url(#p01e5c641f0)" style="fill: #1f77b4"/>
   </g>
   <g id="patch_68">
    <path d="M 165.717601 274.837096 
L 167.326826 274.837096 
L 167.326826 80.697821 
L 165.717601 80.697821 
z
" clip-path="url(#p01e5c641f0)" style="fill: #1f77b4"/>
   </g>
   <g id="patch_69">
    <path d="M 167.326826 274.837096 
L 168.936051 274.837096 
L 168.936051 94.11108 
L 167.326826 94.11108 
z
" clip-path="url(#p01e5c641f0)" style="fill: #1f77b4"/>
   </g>
   <g id="patch_70">
    <path d="M 168.936051 274.837096 
L 170.545276 274.837096 
L 170.545276 89.875314 
L 168.936051 89.875314 
z
" clip-path="url(#p01e5c641f0)" style="fill: #1f77b4"/>
   </g>
   <g id="patch_71">
    <path d="M 170.545276 274.837096 
L 172.154501 274.837096 
L 172.154501 63.754756 
L 170.545276 63.754756 
z
" clip-path="url(#p01e5c641f0)" style="fill: #1f77b4"/>
   </g>
   <g id="patch_72">
    <path d="M 172.154501 274.837096 
L 173.763727 274.837096 
L 173.763727 76.462055 
L 172.154501 76.462055 
z
" clip-path="url(#p01e5c641f0)" style="fill: #1f77b4"/>
   </g>
   <g id="patch_73">
    <path d="M 173.763727 274.837096 
L 175.372952 274.837096 
L 175.372952 97.640885 
L 173.763727 97.640885 
z
" clip-path="url(#p01e5c641f0)" style="fill: #1f77b4"/>
   </g>
   <g id="patch_74">
    <path d="M 175.372952 274.837096 
L 176.982177 274.837096 
L 176.982177 82.815704 
L 175.372952 82.815704 
z
" clip-path="url(#p01e5c641f0)" style="fill: #1f77b4"/>
   </g>
   <g id="patch_75">
    <path d="M 176.982177 274.837096 
L 178.591402 274.837096 
L 178.591402 80.697821 
L 176.982177 80.697821 
z
" clip-path="url(#p01e5c641f0)" style="fill: #1f77b4"/>
   </g>
   <g id="patch_76">
    <path d="M 178.591402 274.837096 
L 180.200627 274.837096 
L 180.200627 89.875314 
L 178.591402 89.875314 
z
" clip-path="url(#p01e5c641f0)" style="fill: #1f77b4"/>
   </g>
   <g id="patch_77">
    <path d="M 180.200627 274.837096 
L 181.809852 274.837096 
L 181.809852 72.226289 
L 180.200627 72.226289 
z
" clip-path="url(#p01e5c641f0)" style="fill: #1f77b4"/>
   </g>
   <g id="patch_78">
    <path d="M 181.809852 274.837096 
L 183.419077 274.837096 
L 183.419077 74.344172 
L 181.809852 74.344172 
z
" clip-path="url(#p01e5c641f0)" style="fill: #1f77b4"/>
   </g>
   <g id="patch_79">
    <path d="M 183.419077 274.837096 
L 185.028302 274.837096 
L 185.028302 69.402445 
L 183.419077 69.402445 
z
" clip-path="url(#p01e5c641f0)" style="fill: #1f77b4"/>
   </g>
   <g id="patch_80">
    <path d="M 185.028302 274.837096 
L 186.637528 274.837096 
L 186.637528 65.166678 
L 185.028302 65.166678 
z
" clip-path="url(#p01e5c641f0)" style="fill: #1f77b4"/>
   </g>
   <g id="patch_81">
    <path d="M 186.637528 274.837096 
L 188.246753 274.837096 
L 188.246753 58.813029 
L 186.637528 58.813029 
z
" clip-path="url(#p01e5c641f0)" style="fill: #1f77b4"/>
   </g>
   <g id="patch_82">
    <path d="M 188.246753 274.837096 
L 189.855978 274.837096 
L 189.855978 75.756094 
L 188.246753 75.756094 
z
" clip-path="url(#p01e5c641f0)" style="fill: #1f77b4"/>
   </g>
   <g id="patch_83">
    <path d="M 189.855978 274.837096 
L 191.465203 274.837096 
L 191.465203 51.047458 
L 189.855978 51.047458 
z
" clip-path="url(#p01e5c641f0)" style="fill: #1f77b4"/>
   </g>
   <g id="patch_84">
    <path d="M 191.465203 274.837096 
L 193.074428 274.837096 
L 193.074428 63.754756 
L 191.465203 63.754756 
z
" clip-path="url(#p01e5c641f0)" style="fill: #1f77b4"/>
   </g>
   <g id="patch_85">
    <path d="M 193.074428 274.837096 
L 194.683653 274.837096 
L 194.683653 75.050133 
L 193.074428 75.050133 
z
" clip-path="url(#p01e5c641f0)" style="fill: #1f77b4"/>
   </g>
   <g id="patch_86">
    <path d="M 194.683653 274.837096 
L 196.292878 274.837096 
L 196.292878 51.753419 
L 194.683653 51.753419 
z
" clip-path="url(#p01e5c641f0)" style="fill: #1f77b4"/>
   </g>
   <g id="patch_87">
    <path d="M 196.292878 274.837096 
L 197.902104 274.837096 
L 197.902104 42.575926 
L 196.292878 42.575926 
z
" clip-path="url(#p01e5c641f0)" style="fill: #1f77b4"/>
   </g>
   <g id="patch_88">
    <path d="M 197.902104 274.837096 
L 199.511329 274.837096 
L 199.511329 77.168016 
L 197.902104 77.168016 
z
" clip-path="url(#p01e5c641f0)" style="fill: #1f77b4"/>
   </g>
   <g id="patch_89">
    <path d="M 199.511329 274.837096 
L 201.120554 274.837096 
L 201.120554 58.107068 
L 199.511329 58.107068 
z
" clip-path="url(#p01e5c641f0)" style="fill: #1f77b4"/>
   </g>
   <g id="patch_90">
    <path d="M 201.120554 274.837096 
L 202.729779 274.837096 
L 202.729779 68.696484 
L 201.120554 68.696484 
z
" clip-path="url(#p01e5c641f0)" style="fill: #1f77b4"/>
   </g>
   <g id="patch_91">
    <path d="M 202.729779 274.837096 
L 204.339004 274.837096 
L 204.339004 43.987848 
L 202.729779 43.987848 
z
" clip-path="url(#p01e5c641f0)" style="fill: #1f77b4"/>
   </g>
   <g id="patch_92">
    <path d="M 204.339004 274.837096 
L 205.948229 274.837096 
L 205.948229 76.462055 
L 204.339004 76.462055 
z
" clip-path="url(#p01e5c641f0)" style="fill: #1f77b4"/>
   </g>
   <g id="patch_93">
    <path d="M 205.948229 274.837096 
L 207.557454 274.837096 
L 207.557454 65.872639 
L 205.948229 65.872639 
z
" clip-path="url(#p01e5c641f0)" style="fill: #1f77b4"/>
   </g>
   <g id="patch_94">
    <path d="M 207.557454 274.837096 
L 209.166679 274.837096 
L 209.166679 77.168016 
L 207.557454 77.168016 
z
" clip-path="url(#p01e5c641f0)" style="fill: #1f77b4"/>
   </g>
   <g id="patch_95">
    <path d="M 209.166679 274.837096 
L 210.775905 274.837096 
L 210.775905 72.93225 
L 209.166679 72.93225 
z
" clip-path="url(#p01e5c641f0)" style="fill: #1f77b4"/>
   </g>
   <g id="patch_96">
    <path d="M 210.775905 274.837096 
L 212.38513 274.837096 
L 212.38513 60.930912 
L 210.775905 60.930912 
z
" clip-path="url(#p01e5c641f0)" style="fill: #1f77b4"/>
   </g>
   <g id="patch_97">
    <path d="M 212.38513 274.837096 
L 213.994355 274.837096 
L 213.994355 38.34016 
L 212.38513 38.34016 
z
" clip-path="url(#p01e5c641f0)" style="fill: #1f77b4"/>
   </g>
   <g id="patch_98">
    <path d="M 213.994355 274.837096 
L 215.60358 274.837096 
L 215.60358 63.048795 
L 213.994355 63.048795 
z
" clip-path="url(#p01e5c641f0)" style="fill: #1f77b4"/>
   </g>
   <g id="patch_99">
    <path d="M 215.60358 274.837096 
L 217.212805 274.837096 
L 217.212805 63.754756 
L 215.60358 63.754756 
z
" clip-path="url(#p01e5c641f0)" style="fill: #1f77b4"/>
   </g>
   <g id="patch_100">
    <path d="M 217.212805 274.837096 
L 218.82203 274.837096 
L 218.82203 59.51899 
L 217.212805 59.51899 
z
" clip-path="url(#p01e5c641f0)" style="fill: #1f77b4"/>
   </g>
   <g id="patch_101">
    <path d="M 218.82203 274.837096 
L 220.431255 274.837096 
L 220.431255 61.636873 
L 218.82203 61.636873 
z
" clip-path="url(#p01e5c641f0)" style="fill: #1f77b4"/>
   </g>
   <g id="patch_102">
    <path d="M 220.431255 274.837096 
L 222.040481 274.837096 
L 222.040481 55.283224 
L 220.431255 55.283224 
z
" clip-path="url(#p01e5c641f0)" style="fill: #1f77b4"/>
   </g>
   <g id="patch_103">
    <path d="M 222.040481 274.837096 
L 223.649706 274.837096 
L 223.649706 58.107068 
L 222.040481 58.107068 
z
" clip-path="url(#p01e5c641f0)" style="fill: #1f77b4"/>
   </g>
   <g id="patch_104">
    <path d="M 223.649706 274.837096 
L 225.258931 274.837096 
L 225.258931 55.283224 
L 223.649706 55.283224 
z
" clip-path="url(#p01e5c641f0)" style="fill: #1f77b4"/>
   </g>
   <g id="patch_105">
    <path d="M 225.258931 274.837096 
L 226.868156 274.837096 
L 226.868156 42.575926 
L 225.258931 42.575926 
z
" clip-path="url(#p01e5c641f0)" style="fill: #1f77b4"/>
   </g>
   <g id="patch_106">
    <path d="M 226.868156 274.837096 
L 228.477381 274.837096 
L 228.477381 65.166678 
L 226.868156 65.166678 
z
" clip-path="url(#p01e5c641f0)" style="fill: #1f77b4"/>
   </g>
   <g id="patch_107">
    <path d="M 228.477381 274.837096 
L 230.086606 274.837096 
L 230.086606 35.516316 
L 228.477381 35.516316 
z
" clip-path="url(#p01e5c641f0)" style="fill: #1f77b4"/>
   </g>
   <g id="patch_108">
    <path d="M 230.086606 274.837096 
L 231.695831 274.837096 
L 231.695831 65.872639 
L 230.086606 65.872639 
z
" clip-path="url(#p01e5c641f0)" style="fill: #1f77b4"/>
   </g>
   <g id="patch_109">
    <path d="M 231.695831 274.837096 
L 233.305056 274.837096 
L 233.305056 40.458043 
L 231.695831 40.458043 
z
" clip-path="url(#p01e5c641f0)" style="fill: #1f77b4"/>
   </g>
   <g id="patch_110">
    <path d="M 233.305056 274.837096 
L 234.914282 274.837096 
L 234.914282 21.397096 
L 233.305056 21.397096 
z
" clip-path="url(#p01e5c641f0)" style="fill: #1f77b4"/>
   </g>
   <g id="patch_111">
    <path d="M 234.914282 274.837096 
L 236.523507 274.837096 
L 236.523507 63.048795 
L 234.914282 63.048795 
z
" clip-path="url(#p01e5c641f0)" style="fill: #1f77b4"/>
   </g>
   <g id="patch_112">
    <path d="M 236.523507 274.837096 
L 238.132732 274.837096 
L 238.132732 55.283224 
L 236.523507 55.283224 
z
" clip-path="url(#p01e5c641f0)" style="fill: #1f77b4"/>
   </g>
   <g id="patch_113">
    <path d="M 238.132732 274.837096 
L 239.741957 274.837096 
L 239.741957 37.634199 
L 238.132732 37.634199 
z
" clip-path="url(#p01e5c641f0)" style="fill: #1f77b4"/>
   </g>
   <g id="patch_114">
    <path d="M 239.741957 274.837096 
L 241.351182 274.837096 
L 241.351182 56.695146 
L 239.741957 56.695146 
z
" clip-path="url(#p01e5c641f0)" style="fill: #1f77b4"/>
   </g>
   <g id="patch_115">
    <path d="M 241.351182 274.837096 
L 242.960407 274.837096 
L 242.960407 51.753419 
L 241.351182 51.753419 
z
" clip-path="url(#p01e5c641f0)" style="fill: #1f77b4"/>
   </g>
   <g id="patch_116">
    <path d="M 242.960407 274.837096 
L 244.569632 274.837096 
L 244.569632 55.989185 
L 242.960407 55.989185 
z
" clip-path="url(#p01e5c641f0)" style="fill: #1f77b4"/>
   </g>
   <g id="patch_117">
    <path d="M 244.569632 274.837096 
L 246.178857 274.837096 
L 246.178857 57.401107 
L 244.569632 57.401107 
z
" clip-path="url(#p01e5c641f0)" style="fill: #1f77b4"/>
   </g>
   <g id="patch_118">
    <path d="M 246.178857 274.837096 
L 247.788083 274.837096 
L 247.788083 44.693809 
L 246.178857 44.693809 
z
" clip-path="url(#p01e5c641f0)" style="fill: #1f77b4"/>
   </g>
   <g id="patch_119">
    <path d="M 247.788083 274.837096 
L 249.397308 274.837096 
L 249.397308 48.929575 
L 247.788083 48.929575 
z
" clip-path="url(#p01e5c641f0)" style="fill: #1f77b4"/>
   </g>
   <g id="patch_120">
    <path d="M 249.397308 274.837096 
L 251.006533 274.837096 
L 251.006533 65.166678 
L 249.397308 65.166678 
z
" clip-path="url(#p01e5c641f0)" style="fill: #1f77b4"/>
   </g>
   <g id="patch_121">
    <path d="M 251.006533 274.837096 
L 252.615758 274.837096 
L 252.615758 77.168016 
L 251.006533 77.168016 
z
" clip-path="url(#p01e5c641f0)" style="fill: #1f77b4"/>
   </g>
   <g id="patch_122">
    <path d="M 252.615758 274.837096 
L 254.224983 274.837096 
L 254.224983 81.403782 
L 252.615758 81.403782 
z
" clip-path="url(#p01e5c641f0)" style="fill: #1f77b4"/>
   </g>
   <g id="patch_123">
    <path d="M 254.224983 274.837096 
L 255.834208 274.837096 
L 255.834208 67.990523 
L 254.224983 67.990523 
z
" clip-path="url(#p01e5c641f0)" style="fill: #1f77b4"/>
   </g>
   <g id="patch_124">
    <path d="M 255.834208 274.837096 
L 257.443433 274.837096 
L 257.443433 63.754756 
L 255.834208 63.754756 
z
" clip-path="url(#p01e5c641f0)" style="fill: #1f77b4"/>
   </g>
   <g id="patch_125">
    <path d="M 257.443433 274.837096 
L 259.052659 274.837096 
L 259.052659 73.638211 
L 257.443433 73.638211 
z
" clip-path="url(#p01e5c641f0)" style="fill: #1f77b4"/>
   </g>
   <g id="patch_126">
    <path d="M 259.052659 274.837096 
L 260.661884 274.837096 
L 260.661884 83.521665 
L 259.052659 83.521665 
z
" clip-path="url(#p01e5c641f0)" style="fill: #1f77b4"/>
   </g>
   <g id="patch_127">
    <path d="M 260.661884 274.837096 
L 262.271109 274.837096 
L 262.271109 79.285899 
L 260.661884 79.285899 
z
" clip-path="url(#p01e5c641f0)" style="fill: #1f77b4"/>
   </g>
   <g id="patch_128">
    <path d="M 262.271109 274.837096 
L 263.880334 274.837096 
L 263.880334 63.754756 
L 262.271109 63.754756 
z
" clip-path="url(#p01e5c641f0)" style="fill: #1f77b4"/>
   </g>
   <g id="patch_129">
    <path d="M 263.880334 274.837096 
L 265.489559 274.837096 
L 265.489559 70.814367 
L 263.880334 70.814367 
z
" clip-path="url(#p01e5c641f0)" style="fill: #1f77b4"/>
   </g>
   <g id="patch_130">
    <path d="M 265.489559 274.837096 
L 267.098784 274.837096 
L 267.098784 83.521665 
L 265.489559 83.521665 
z
" clip-path="url(#p01e5c641f0)" style="fill: #1f77b4"/>
   </g>
   <g id="patch_131">
    <path d="M 267.098784 274.837096 
L 268.708009 274.837096 
L 268.708009 60.224951 
L 267.098784 60.224951 
z
" clip-path="url(#p01e5c641f0)" style="fill: #1f77b4"/>
   </g>
   <g id="patch_132">
    <path d="M 268.708009 274.837096 
L 270.317234 274.837096 
L 270.317234 84.933587 
L 268.708009 84.933587 
z
" clip-path="url(#p01e5c641f0)" style="fill: #1f77b4"/>
   </g>
   <g id="patch_133">
    <path d="M 270.317234 274.837096 
L 271.92646 274.837096 
L 271.92646 79.99186 
L 270.317234 79.99186 
z
" clip-path="url(#p01e5c641f0)" style="fill: #1f77b4"/>
   </g>
   <g id="patch_134">
    <path d="M 271.92646 274.837096 
L 273.535685 274.837096 
L 273.535685 90.581275 
L 271.92646 90.581275 
z
" clip-path="url(#p01e5c641f0)" style="fill: #1f77b4"/>
   </g>
   <g id="patch_135">
    <path d="M 273.535685 274.837096 
L 275.14491 274.837096 
L 275.14491 96.228963 
L 273.535685 96.228963 
z
" clip-path="url(#p01e5c641f0)" style="fill: #1f77b4"/>
   </g>
   <g id="patch_136">
    <path d="M 275.14491 274.837096 
L 276.754135 274.837096 
L 276.754135 70.108406 
L 275.14491 70.108406 
z
" clip-path="url(#p01e5c641f0)" style="fill: #1f77b4"/>
   </g>
   <g id="patch_137">
    <path d="M 276.754135 274.837096 
L 278.36336 274.837096 
L 278.36336 102.582612 
L 276.754135 102.582612 
z
" clip-path="url(#p01e5c641f0)" style="fill: #1f77b4"/>
   </g>
   <g id="patch_138">
    <path d="M 278.36336 274.837096 
L 279.972585 274.837096 
L 279.972585 89.169353 
L 278.36336 89.169353 
z
" clip-path="url(#p01e5c641f0)" style="fill: #1f77b4"/>
   </g>
   <g id="patch_139">
    <path d="M 279.972585 274.837096 
L 281.58181 274.837096 
L 281.58181 83.521665 
L 279.972585 83.521665 
z
" clip-path="url(#p01e5c641f0)" style="fill: #1f77b4"/>
   </g>
   <g id="patch_140">
    <path d="M 281.58181 274.837096 
L 283.191036 274.837096 
L 283.191036 97.640885 
L 281.58181 97.640885 
z
" clip-path="url(#p01e5c641f0)" style="fill: #1f77b4"/>
   </g>
   <g id="patch_141">
    <path d="M 283.191036 274.837096 
L 284.800261 274.837096 
L 284.800261 93.405119 
L 283.191036 93.405119 
z
" clip-path="url(#p01e5c641f0)" style="fill: #1f77b4"/>
   </g>
   <g id="patch_142">
    <path d="M 284.800261 274.837096 
L 286.409486 274.837096 
L 286.409486 93.405119 
L 284.800261 93.405119 
z
" clip-path="url(#p01e5c641f0)" style="fill: #1f77b4"/>
   </g>
   <g id="patch_143">
    <path d="M 286.409486 274.837096 
L 288.018711 274.837096 
L 288.018711 114.583949 
L 286.409486 114.583949 
z
" clip-path="url(#p01e5c641f0)" style="fill: #1f77b4"/>
   </g>
   <g id="patch_144">
    <path d="M 288.018711 274.837096 
L 289.627936 274.837096 
L 289.627936 98.346846 
L 288.018711 98.346846 
z
" clip-path="url(#p01e5c641f0)" style="fill: #1f77b4"/>
   </g>
   <g id="patch_145">
    <path d="M 289.627936 274.837096 
L 291.237161 274.837096 
L 291.237161 85.639548 
L 289.627936 85.639548 
z
" clip-path="url(#p01e5c641f0)" style="fill: #1f77b4"/>
   </g>
   <g id="patch_146">
    <path d="M 291.237161 274.837096 
L 292.846386 274.837096 
L 292.846386 105.406456 
L 291.237161 105.406456 
z
" clip-path="url(#p01e5c641f0)" style="fill: #1f77b4"/>
   </g>
   <g id="patch_147">
    <path d="M 292.846386 274.837096 
L 294.455611 274.837096 
L 294.455611 98.346846 
L 292.846386 98.346846 
z
" clip-path="url(#p01e5c641f0)" style="fill: #1f77b4"/>
   </g>
   <g id="patch_148">
    <path d="M 294.455611 274.837096 
L 296.064837 274.837096 
L 296.064837 106.818378 
L 294.455611 106.818378 
z
" clip-path="url(#p01e5c641f0)" style="fill: #1f77b4"/>
   </g>
   <g id="patch_149">
    <path d="M 296.064837 274.837096 
L 297.674062 274.837096 
L 297.674062 107.524339 
L 296.064837 107.524339 
z
" clip-path="url(#p01e5c641f0)" style="fill: #1f77b4"/>
   </g>
   <g id="patch_150">
    <path d="M 297.674062 274.837096 
L 299.283287 274.837096 
L 299.283287 96.228963 
L 297.674062 96.228963 
z
" clip-path="url(#p01e5c641f0)" style="fill: #1f77b4"/>
   </g>
   <g id="patch_151">
    <path d="M 299.283287 274.837096 
L 300.892512 274.837096 
L 300.892512 99.758768 
L 299.283287 99.758768 
z
" clip-path="url(#p01e5c641f0)" style="fill: #1f77b4"/>
   </g>
   <g id="patch_152">
    <path d="M 300.892512 274.837096 
L 302.501737 274.837096 
L 302.501737 114.583949 
L 300.892512 114.583949 
z
" clip-path="url(#p01e5c641f0)" style="fill: #1f77b4"/>
   </g>
   <g id="patch_153">
    <path d="M 302.501737 274.837096 
L 304.110962 274.837096 
L 304.110962 107.524339 
L 302.501737 107.524339 
z
" clip-path="url(#p01e5c641f0)" style="fill: #1f77b4"/>
   </g>
   <g id="patch_154">
    <path d="M 304.110962 274.837096 
L 305.720187 274.837096 
L 305.720187 123.761442 
L 304.110962 123.761442 
z
" clip-path="url(#p01e5c641f0)" style="fill: #1f77b4"/>
   </g>
   <g id="patch_155">
    <path d="M 305.720187 274.837096 
L 307.329413 274.837096 
L 307.329413 117.407793 
L 305.720187 117.407793 
z
" clip-path="url(#p01e5c641f0)" style="fill: #1f77b4"/>
   </g>
   <g id="patch_156">
    <path d="M 307.329413 274.837096 
L 308.938638 274.837096 
L 308.938638 113.877988 
L 307.329413 113.877988 
z
" clip-path="url(#p01e5c641f0)" style="fill: #1f77b4"/>
   </g>
   <g id="patch_157">
    <path d="M 308.938638 274.837096 
L 310.547863 274.837096 
L 310.547863 139.292584 
L 308.938638 139.292584 
z
" clip-path="url(#p01e5c641f0)" style="fill: #1f77b4"/>
   </g>
   <g id="patch_158">
    <path d="M 310.547863 274.837096 
L 312.157088 274.837096 
L 312.157088 149.881999 
L 310.547863 149.881999 
z
" clip-path="url(#p01e5c641f0)" style="fill: #1f77b4"/>
   </g>
   <g id="patch_159">
    <path d="M 312.157088 274.837096 
L 313.766313 274.837096 
L 313.766313 126.585286 
L 312.157088 126.585286 
z
" clip-path="url(#p01e5c641f0)" style="fill: #1f77b4"/>
   </g>
   <g id="patch_160">
    <path d="M 313.766313 274.837096 
L 315.375538 274.837096 
L 315.375538 129.40913 
L 313.766313 129.40913 
z
" clip-path="url(#p01e5c641f0)" style="fill: #1f77b4"/>
   </g>
   <g id="patch_161">
    <path d="M 315.375538 274.837096 
L 316.984763 274.837096 
L 316.984763 139.292584 
L 315.375538 139.292584 
z
" clip-path="url(#p01e5c641f0)" style="fill: #1f77b4"/>
   </g>
   <g id="patch_162">
    <path d="M 316.984763 274.837096 
L 318.593988 274.837096 
L 318.593988 142.822389 
L 316.984763 142.822389 
z
" clip-path="url(#p01e5c641f0)" style="fill: #1f77b4"/>
   </g>
   <g id="patch_163">
    <path d="M 318.593988 274.837096 
L 320.203214 274.837096 
L 320.203214 125.173364 
L 318.593988 125.173364 
z
" clip-path="url(#p01e5c641f0)" style="fill: #1f77b4"/>
   </g>
   <g id="patch_164">
    <path d="M 320.203214 274.837096 
L 321.812439 274.837096 
L 321.812439 149.176038 
L 320.203214 149.176038 
z
" clip-path="url(#p01e5c641f0)" style="fill: #1f77b4"/>
   </g>
   <g id="patch_165">
    <path d="M 321.812439 274.837096 
L 323.421664 274.837096 
L 323.421664 147.058155 
L 321.812439 147.058155 
z
" clip-path="url(#p01e5c641f0)" style="fill: #1f77b4"/>
   </g>
   <g id="patch_166">
    <path d="M 323.421664 274.837096 
L 325.030889 274.837096 
L 325.030889 153.411804 
L 323.421664 153.411804 
z
" clip-path="url(#p01e5c641f0)" style="fill: #1f77b4"/>
   </g>
   <g id="patch_167">
    <path d="M 325.030889 274.837096 
L 326.640114 274.837096 
L 326.640114 147.764116 
L 325.030889 147.764116 
z
" clip-path="url(#p01e5c641f0)" style="fill: #1f77b4"/>
   </g>
   <g id="patch_168">
    <path d="M 326.640114 274.837096 
L 328.249339 274.837096 
L 328.249339 149.176038 
L 326.640114 149.176038 
z
" clip-path="url(#p01e5c641f0)" style="fill: #1f77b4"/>
   </g>
   <g id="patch_169">
    <path d="M 328.249339 274.837096 
L 329.858564 274.837096 
L 329.858564 157.64757 
L 328.249339 157.64757 
z
" clip-path="url(#p01e5c641f0)" style="fill: #1f77b4"/>
   </g>
   <g id="patch_170">
    <path d="M 329.858564 274.837096 
L 331.46779 274.837096 
L 331.46779 175.296595 
L 329.858564 175.296595 
z
" clip-path="url(#p01e5c641f0)" style="fill: #1f77b4"/>
   </g>
   <g id="patch_171">
    <path d="M 331.46779 274.837096 
L 333.077015 274.837096 
L 333.077015 164.70718 
L 331.46779 164.70718 
z
" clip-path="url(#p01e5c641f0)" style="fill: #1f77b4"/>
   </g>
   <g id="patch_172">
    <path d="M 333.077015 274.837096 
L 334.68624 274.837096 
L 334.68624 165.413141 
L 333.077015 165.413141 
z
" clip-path="url(#p01e5c641f0)" style="fill: #1f77b4"/>
   </g>
   <g id="patch_173">
    <path d="M 334.68624 274.837096 
L 336.295465 274.837096 
L 336.295465 171.060829 
L 334.68624 171.060829 
z
" clip-path="url(#p01e5c641f0)" style="fill: #1f77b4"/>
   </g>
   <g id="patch_174">
    <path d="M 336.295465 274.837096 
L 337.90469 274.837096 
L 337.90469 180.944283 
L 336.295465 180.944283 
z
" clip-path="url(#p01e5c641f0)" style="fill: #1f77b4"/>
   </g>
   <g id="patch_175">
    <path d="M 337.90469 274.837096 
L 339.513915 274.837096 
L 339.513915 189.415815 
L 337.90469 189.415815 
z
" clip-path="url(#p01e5c641f0)" style="fill: #1f77b4"/>
   </g>
   <g id="patch_176">
    <path d="M 339.513915 274.837096 
L 341.12314 274.837096 
L 341.12314 185.180049 
L 339.513915 185.180049 
z
" clip-path="url(#p01e5c641f0)" style="fill: #1f77b4"/>
   </g>
   <g id="patch_177">
    <path d="M 341.12314 274.837096 
L 342.732365 274.837096 
L 342.732365 185.180049 
L 341.12314 185.180049 
z
" clip-path="url(#p01e5c641f0)" style="fill: #1f77b4"/>
   </g>
   <g id="patch_178">
    <path d="M 342.732365 274.837096 
L 344.341591 274.837096 
L 344.341591 191.533698 
L 342.732365 191.533698 
z
" clip-path="url(#p01e5c641f0)" style="fill: #1f77b4"/>
   </g>
   <g id="patch_179">
    <path d="M 344.341591 274.837096 
L 345.950816 274.837096 
L 345.950816 185.88601 
L 344.341591 185.88601 
z
" clip-path="url(#p01e5c641f0)" style="fill: #1f77b4"/>
   </g>
   <g id="patch_180">
    <path d="M 345.950816 274.837096 
L 347.560041 274.837096 
L 347.560041 197.181386 
L 345.950816 197.181386 
z
" clip-path="url(#p01e5c641f0)" style="fill: #1f77b4"/>
   </g>
   <g id="patch_181">
    <path d="M 347.560041 274.837096 
L 349.169266 274.837096 
L 349.169266 192.94562 
L 347.560041 192.94562 
z
" clip-path="url(#p01e5c641f0)" style="fill: #1f77b4"/>
   </g>
   <g id="patch_182">
    <path d="M 349.169266 274.837096 
L 350.778491 274.837096 
L 350.778491 197.887347 
L 349.169266 197.887347 
z
" clip-path="url(#p01e5c641f0)" style="fill: #1f77b4"/>
   </g>
   <g id="patch_183">
    <path d="M 350.778491 274.837096 
L 352.387716 274.837096 
L 352.387716 214.830411 
L 350.778491 214.830411 
z
" clip-path="url(#p01e5c641f0)" style="fill: #1f77b4"/>
   </g>
   <g id="patch_184">
    <path d="M 352.387716 274.837096 
L 353.996941 274.837096 
L 353.996941 210.594645 
L 352.387716 210.594645 
z
" clip-path="url(#p01e5c641f0)" style="fill: #1f77b4"/>
   </g>
   <g id="patch_185">
    <path d="M 353.996941 274.837096 
L 355.606167 274.837096 
L 355.606167 218.360216 
L 353.996941 218.360216 
z
" clip-path="url(#p01e5c641f0)" style="fill: #1f77b4"/>
   </g>
   <g id="patch_186">
    <path d="M 355.606167 274.837096 
L 357.215392 274.837096 
L 357.215392 224.713865 
L 355.606167 224.713865 
z
" clip-path="url(#p01e5c641f0)" style="fill: #1f77b4"/>
   </g>
   <g id="patch_187">
    <path d="M 357.215392 274.837096 
L 358.824617 274.837096 
L 358.824617 209.888684 
L 357.215392 209.888684 
z
" clip-path="url(#p01e5c641f0)" style="fill: #1f77b4"/>
   </g>
   <g id="patch_188">
    <path d="M 358.824617 274.837096 
L 360.433842 274.837096 
L 360.433842 229.655592 
L 358.824617 229.655592 
z
" clip-path="url(#p01e5c641f0)" style="fill: #1f77b4"/>
   </g>
   <g id="patch_189">
    <path d="M 360.433842 274.837096 
L 362.043067 274.837096 
L 362.043067 221.18406 
L 360.433842 221.18406 
z
" clip-path="url(#p01e5c641f0)" style="fill: #1f77b4"/>
   </g>
   <g id="patch_190">
    <path d="M 362.043067 274.837096 
L 363.652292 274.837096 
L 363.652292 231.067514 
L 362.043067 231.067514 
z
" clip-path="url(#p01e5c641f0)" style="fill: #1f77b4"/>
   </g>
   <g id="patch_191">
    <path d="M 363.652292 274.837096 
L 365.261517 274.837096 
L 365.261517 235.30328 
L 363.652292 235.30328 
z
" clip-path="url(#p01e5c641f0)" style="fill: #1f77b4"/>
   </g>
   <g id="patch_192">
    <path d="M 365.261517 274.837096 
L 366.870742 274.837096 
L 366.870742 242.36289 
L 365.261517 242.36289 
z
" clip-path="url(#p01e5c641f0)" style="fill: #1f77b4"/>
   </g>
   <g id="patch_193">
    <path d="M 366.870742 274.837096 
L 368.479968 274.837096 
L 368.479968 240.245007 
L 366.870742 240.245007 
z
" clip-path="url(#p01e5c641f0)" style="fill: #1f77b4"/>
   </g>
   <g id="patch_194">
    <path d="M 368.479968 274.837096 
L 370.089193 274.837096 
L 370.089193 240.950968 
L 368.479968 240.950968 
z
" clip-path="url(#p01e5c641f0)" style="fill: #1f77b4"/>
   </g>
   <g id="patch_195">
    <path d="M 370.089193 274.837096 
L 371.698418 274.837096 
L 371.698418 248.010578 
L 370.089193 248.010578 
z
" clip-path="url(#p01e5c641f0)" style="fill: #1f77b4"/>
   </g>
   <g id="patch_196">
    <path d="M 371.698418 274.837096 
L 373.307643 274.837096 
L 373.307643 250.834422 
L 371.698418 250.834422 
z
" clip-path="url(#p01e5c641f0)" style="fill: #1f77b4"/>
   </g>
   <g id="patch_197">
    <path d="M 373.307643 274.837096 
L 374.916868 274.837096 
L 374.916868 250.128461 
L 373.307643 250.128461 
z
" clip-path="url(#p01e5c641f0)" style="fill: #1f77b4"/>
   </g>
   <g id="patch_198">
    <path d="M 374.916868 274.837096 
L 376.526093 274.837096 
L 376.526093 260.717876 
L 374.916868 260.717876 
z
" clip-path="url(#p01e5c641f0)" style="fill: #1f77b4"/>
   </g>
   <g id="patch_199">
    <path d="M 376.526093 274.837096 
L 378.135318 274.837096 
L 378.135318 253.658266 
L 376.526093 253.658266 
z
" clip-path="url(#p01e5c641f0)" style="fill: #1f77b4"/>
   </g>
   <g id="patch_200">
    <path d="M 378.135318 274.837096 
L 379.744543 274.837096 
L 379.744543 263.54172 
L 378.135318 263.54172 
z
" clip-path="url(#p01e5c641f0)" style="fill: #1f77b4"/>
   </g>
   <g id="patch_201">
    <path d="M 379.744543 274.837096 
L 381.353769 274.837096 
L 381.353769 267.777486 
L 379.744543 267.777486 
z
" clip-path="url(#p01e5c641f0)" style="fill: #1f77b4"/>
   </g>
   <g id="patch_202">
    <path d="M 381.353769 274.837096 
L 382.962994 274.837096 
L 382.962994 269.189408 
L 381.353769 269.189408 
z
" clip-path="url(#p01e5c641f0)" style="fill: #1f77b4"/>
   </g>
   <g id="matplotlib.axis_1">
    <g id="xtick_1">
     <g id="line2d_1">
      <defs>
       <path id="m5cc29a5e70" d="M 0 0 
L 0 3.5 
" style="stroke: #000000; stroke-width: 0.8"/>
      </defs>
      <g>
       <use xlink:href="#m5cc29a5e70" x="60.013977" y="274.837096" style="stroke: #000000; stroke-width: 0.8"/>
      </g>
     </g>
     <g id="text_1">
      <!-- 0.0 -->
      <g transform="translate(52.062415 289.435534)scale(0.1 -0.1)">
       <defs>
        <path id="DejaVuSans-30" d="M 2034 4250 
Q 1547 4250 1301 3770 
Q 1056 3291 1056 2328 
Q 1056 1369 1301 889 
Q 1547 409 2034 409 
Q 2525 409 2770 889 
Q 3016 1369 3016 2328 
Q 3016 3291 2770 3770 
Q 2525 4250 2034 4250 
z
M 2034 4750 
Q 2819 4750 3233 4129 
Q 3647 3509 3647 2328 
Q 3647 1150 3233 529 
Q 2819 -91 2034 -91 
Q 1250 -91 836 529 
Q 422 1150 422 2328 
Q 422 3509 836 4129 
Q 1250 4750 2034 4750 
z
" transform="scale(0.015625)"/>
        <path id="DejaVuSans-2e" d="M 684 794 
L 1344 794 
L 1344 0 
L 684 0 
L 684 794 
z
" transform="scale(0.015625)"/>
       </defs>
       <use xlink:href="#DejaVuSans-30"/>
       <use xlink:href="#DejaVuSans-2e" x="63.623047"/>
       <use xlink:href="#DejaVuSans-30" x="95.410156"/>
      </g>
     </g>
    </g>
    <g id="xtick_2">
     <g id="line2d_2">
      <g>
       <use xlink:href="#m5cc29a5e70" x="101.350278" y="274.837096" style="stroke: #000000; stroke-width: 0.8"/>
      </g>
     </g>
     <g id="text_2">
      <!-- 0.2 -->
      <g transform="translate(93.398715 289.435534)scale(0.1 -0.1)">
       <defs>
        <path id="DejaVuSans-32" d="M 1228 531 
L 3431 531 
L 3431 0 
L 469 0 
L 469 531 
Q 828 903 1448 1529 
Q 2069 2156 2228 2338 
Q 2531 2678 2651 2914 
Q 2772 3150 2772 3378 
Q 2772 3750 2511 3984 
Q 2250 4219 1831 4219 
Q 1534 4219 1204 4116 
Q 875 4013 500 3803 
L 500 4441 
Q 881 4594 1212 4672 
Q 1544 4750 1819 4750 
Q 2544 4750 2975 4387 
Q 3406 4025 3406 3419 
Q 3406 3131 3298 2873 
Q 3191 2616 2906 2266 
Q 2828 2175 2409 1742 
Q 1991 1309 1228 531 
z
" transform="scale(0.015625)"/>
       </defs>
       <use xlink:href="#DejaVuSans-30"/>
       <use xlink:href="#DejaVuSans-2e" x="63.623047"/>
       <use xlink:href="#DejaVuSans-32" x="95.410156"/>
      </g>
     </g>
    </g>
    <g id="xtick_3">
     <g id="line2d_3">
      <g>
       <use xlink:href="#m5cc29a5e70" x="142.686578" y="274.837096" style="stroke: #000000; stroke-width: 0.8"/>
      </g>
     </g>
     <g id="text_3">
      <!-- 0.4 -->
      <g transform="translate(134.735016 289.435534)scale(0.1 -0.1)">
       <defs>
        <path id="DejaVuSans-34" d="M 2419 4116 
L 825 1625 
L 2419 1625 
L 2419 4116 
z
M 2253 4666 
L 3047 4666 
L 3047 1625 
L 3713 1625 
L 3713 1100 
L 3047 1100 
L 3047 0 
L 2419 0 
L 2419 1100 
L 313 1100 
L 313 1709 
L 2253 4666 
z
" transform="scale(0.015625)"/>
       </defs>
       <use xlink:href="#DejaVuSans-30"/>
       <use xlink:href="#DejaVuSans-2e" x="63.623047"/>
       <use xlink:href="#DejaVuSans-34" x="95.410156"/>
      </g>
     </g>
    </g>
    <g id="xtick_4">
     <g id="line2d_4">
      <g>
       <use xlink:href="#m5cc29a5e70" x="184.022879" y="274.837096" style="stroke: #000000; stroke-width: 0.8"/>
      </g>
     </g>
     <g id="text_4">
      <!-- 0.6 -->
      <g transform="translate(176.071316 289.435534)scale(0.1 -0.1)">
       <defs>
        <path id="DejaVuSans-36" d="M 2113 2584 
Q 1688 2584 1439 2293 
Q 1191 2003 1191 1497 
Q 1191 994 1439 701 
Q 1688 409 2113 409 
Q 2538 409 2786 701 
Q 3034 994 3034 1497 
Q 3034 2003 2786 2293 
Q 2538 2584 2113 2584 
z
M 3366 4563 
L 3366 3988 
Q 3128 4100 2886 4159 
Q 2644 4219 2406 4219 
Q 1781 4219 1451 3797 
Q 1122 3375 1075 2522 
Q 1259 2794 1537 2939 
Q 1816 3084 2150 3084 
Q 2853 3084 3261 2657 
Q 3669 2231 3669 1497 
Q 3669 778 3244 343 
Q 2819 -91 2113 -91 
Q 1303 -91 875 529 
Q 447 1150 447 2328 
Q 447 3434 972 4092 
Q 1497 4750 2381 4750 
Q 2619 4750 2861 4703 
Q 3103 4656 3366 4563 
z
" transform="scale(0.015625)"/>
       </defs>
       <use xlink:href="#DejaVuSans-30"/>
       <use xlink:href="#DejaVuSans-2e" x="63.623047"/>
       <use xlink:href="#DejaVuSans-36" x="95.410156"/>
      </g>
     </g>
    </g>
    <g id="xtick_5">
     <g id="line2d_5">
      <g>
       <use xlink:href="#m5cc29a5e70" x="225.35918" y="274.837096" style="stroke: #000000; stroke-width: 0.8"/>
      </g>
     </g>
     <g id="text_5">
      <!-- 0.8 -->
      <g transform="translate(217.407617 289.435534)scale(0.1 -0.1)">
       <defs>
        <path id="DejaVuSans-38" d="M 2034 2216 
Q 1584 2216 1326 1975 
Q 1069 1734 1069 1313 
Q 1069 891 1326 650 
Q 1584 409 2034 409 
Q 2484 409 2743 651 
Q 3003 894 3003 1313 
Q 3003 1734 2745 1975 
Q 2488 2216 2034 2216 
z
M 1403 2484 
Q 997 2584 770 2862 
Q 544 3141 544 3541 
Q 544 4100 942 4425 
Q 1341 4750 2034 4750 
Q 2731 4750 3128 4425 
Q 3525 4100 3525 3541 
Q 3525 3141 3298 2862 
Q 3072 2584 2669 2484 
Q 3125 2378 3379 2068 
Q 3634 1759 3634 1313 
Q 3634 634 3220 271 
Q 2806 -91 2034 -91 
Q 1263 -91 848 271 
Q 434 634 434 1313 
Q 434 1759 690 2068 
Q 947 2378 1403 2484 
z
M 1172 3481 
Q 1172 3119 1398 2916 
Q 1625 2713 2034 2713 
Q 2441 2713 2670 2916 
Q 2900 3119 2900 3481 
Q 2900 3844 2670 4047 
Q 2441 4250 2034 4250 
Q 1625 4250 1398 4047 
Q 1172 3844 1172 3481 
z
" transform="scale(0.015625)"/>
       </defs>
       <use xlink:href="#DejaVuSans-30"/>
       <use xlink:href="#DejaVuSans-2e" x="63.623047"/>
       <use xlink:href="#DejaVuSans-38" x="95.410156"/>
      </g>
     </g>
    </g>
    <g id="xtick_6">
     <g id="line2d_6">
      <g>
       <use xlink:href="#m5cc29a5e70" x="266.69548" y="274.837096" style="stroke: #000000; stroke-width: 0.8"/>
      </g>
     </g>
     <g id="text_6">
      <!-- 1.0 -->
      <g transform="translate(258.743918 289.435534)scale(0.1 -0.1)">
       <defs>
        <path id="DejaVuSans-31" d="M 794 531 
L 1825 531 
L 1825 4091 
L 703 3866 
L 703 4441 
L 1819 4666 
L 2450 4666 
L 2450 531 
L 3481 531 
L 3481 0 
L 794 0 
L 794 531 
z
" transform="scale(0.015625)"/>
       </defs>
       <use xlink:href="#DejaVuSans-31"/>
       <use xlink:href="#DejaVuSans-2e" x="63.623047"/>
       <use xlink:href="#DejaVuSans-30" x="95.410156"/>
      </g>
     </g>
    </g>
    <g id="xtick_7">
     <g id="line2d_7">
      <g>
       <use xlink:href="#m5cc29a5e70" x="308.031781" y="274.837096" style="stroke: #000000; stroke-width: 0.8"/>
      </g>
     </g>
     <g id="text_7">
      <!-- 1.2 -->
      <g transform="translate(300.080218 289.435534)scale(0.1 -0.1)">
       <use xlink:href="#DejaVuSans-31"/>
       <use xlink:href="#DejaVuSans-2e" x="63.623047"/>
       <use xlink:href="#DejaVuSans-32" x="95.410156"/>
      </g>
     </g>
    </g>
    <g id="xtick_8">
     <g id="line2d_8">
      <g>
       <use xlink:href="#m5cc29a5e70" x="349.368081" y="274.837096" style="stroke: #000000; stroke-width: 0.8"/>
      </g>
     </g>
     <g id="text_8">
      <!-- 1.4 -->
      <g transform="translate(341.416519 289.435534)scale(0.1 -0.1)">
       <use xlink:href="#DejaVuSans-31"/>
       <use xlink:href="#DejaVuSans-2e" x="63.623047"/>
       <use xlink:href="#DejaVuSans-34" x="95.410156"/>
      </g>
     </g>
    </g>
    <g id="xtick_9">
     <g id="line2d_9">
      <g>
       <use xlink:href="#m5cc29a5e70" x="390.704382" y="274.837096" style="stroke: #000000; stroke-width: 0.8"/>
      </g>
     </g>
     <g id="text_9">
      <!-- 1.6 -->
      <g transform="translate(382.752819 289.435534)scale(0.1 -0.1)">
       <use xlink:href="#DejaVuSans-31"/>
       <use xlink:href="#DejaVuSans-2e" x="63.623047"/>
       <use xlink:href="#DejaVuSans-36" x="95.410156"/>
      </g>
     </g>
    </g>
    <g id="text_10">
     <!-- Angle with normal (rad) -->
     <g transform="translate(163.023281 303.113659)scale(0.1 -0.1)">
      <defs>
       <path id="DejaVuSans-41" d="M 2188 4044 
L 1331 1722 
L 3047 1722 
L 2188 4044 
z
M 1831 4666 
L 2547 4666 
L 4325 0 
L 3669 0 
L 3244 1197 
L 1141 1197 
L 716 0 
L 50 0 
L 1831 4666 
z
" transform="scale(0.015625)"/>
       <path id="DejaVuSans-6e" d="M 3513 2113 
L 3513 0 
L 2938 0 
L 2938 2094 
Q 2938 2591 2744 2837 
Q 2550 3084 2163 3084 
Q 1697 3084 1428 2787 
Q 1159 2491 1159 1978 
L 1159 0 
L 581 0 
L 581 3500 
L 1159 3500 
L 1159 2956 
Q 1366 3272 1645 3428 
Q 1925 3584 2291 3584 
Q 2894 3584 3203 3211 
Q 3513 2838 3513 2113 
z
" transform="scale(0.015625)"/>
       <path id="DejaVuSans-67" d="M 2906 1791 
Q 2906 2416 2648 2759 
Q 2391 3103 1925 3103 
Q 1463 3103 1205 2759 
Q 947 2416 947 1791 
Q 947 1169 1205 825 
Q 1463 481 1925 481 
Q 2391 481 2648 825 
Q 2906 1169 2906 1791 
z
M 3481 434 
Q 3481 -459 3084 -895 
Q 2688 -1331 1869 -1331 
Q 1566 -1331 1297 -1286 
Q 1028 -1241 775 -1147 
L 775 -588 
Q 1028 -725 1275 -790 
Q 1522 -856 1778 -856 
Q 2344 -856 2625 -561 
Q 2906 -266 2906 331 
L 2906 616 
Q 2728 306 2450 153 
Q 2172 0 1784 0 
Q 1141 0 747 490 
Q 353 981 353 1791 
Q 353 2603 747 3093 
Q 1141 3584 1784 3584 
Q 2172 3584 2450 3431 
Q 2728 3278 2906 2969 
L 2906 3500 
L 3481 3500 
L 3481 434 
z
" transform="scale(0.015625)"/>
       <path id="DejaVuSans-6c" d="M 603 4863 
L 1178 4863 
L 1178 0 
L 603 0 
L 603 4863 
z
" transform="scale(0.015625)"/>
       <path id="DejaVuSans-65" d="M 3597 1894 
L 3597 1613 
L 953 1613 
Q 991 1019 1311 708 
Q 1631 397 2203 397 
Q 2534 397 2845 478 
Q 3156 559 3463 722 
L 3463 178 
Q 3153 47 2828 -22 
Q 2503 -91 2169 -91 
Q 1331 -91 842 396 
Q 353 884 353 1716 
Q 353 2575 817 3079 
Q 1281 3584 2069 3584 
Q 2775 3584 3186 3129 
Q 3597 2675 3597 1894 
z
M 3022 2063 
Q 3016 2534 2758 2815 
Q 2500 3097 2075 3097 
Q 1594 3097 1305 2825 
Q 1016 2553 972 2059 
L 3022 2063 
z
" transform="scale(0.015625)"/>
       <path id="DejaVuSans-20" transform="scale(0.015625)"/>
       <path id="DejaVuSans-77" d="M 269 3500 
L 844 3500 
L 1563 769 
L 2278 3500 
L 2956 3500 
L 3675 769 
L 4391 3500 
L 4966 3500 
L 4050 0 
L 3372 0 
L 2619 2869 
L 1863 0 
L 1184 0 
L 269 3500 
z
" transform="scale(0.015625)"/>
       <path id="DejaVuSans-69" d="M 603 3500 
L 1178 3500 
L 1178 0 
L 603 0 
L 603 3500 
z
M 603 4863 
L 1178 4863 
L 1178 4134 
L 603 4134 
L 603 4863 
z
" transform="scale(0.015625)"/>
       <path id="DejaVuSans-74" d="M 1172 4494 
L 1172 3500 
L 2356 3500 
L 2356 3053 
L 1172 3053 
L 1172 1153 
Q 1172 725 1289 603 
Q 1406 481 1766 481 
L 2356 481 
L 2356 0 
L 1766 0 
Q 1100 0 847 248 
Q 594 497 594 1153 
L 594 3053 
L 172 3053 
L 172 3500 
L 594 3500 
L 594 4494 
L 1172 4494 
z
" transform="scale(0.015625)"/>
       <path id="DejaVuSans-68" d="M 3513 2113 
L 3513 0 
L 2938 0 
L 2938 2094 
Q 2938 2591 2744 2837 
Q 2550 3084 2163 3084 
Q 1697 3084 1428 2787 
Q 1159 2491 1159 1978 
L 1159 0 
L 581 0 
L 581 4863 
L 1159 4863 
L 1159 2956 
Q 1366 3272 1645 3428 
Q 1925 3584 2291 3584 
Q 2894 3584 3203 3211 
Q 3513 2838 3513 2113 
z
" transform="scale(0.015625)"/>
       <path id="DejaVuSans-6f" d="M 1959 3097 
Q 1497 3097 1228 2736 
Q 959 2375 959 1747 
Q 959 1119 1226 758 
Q 1494 397 1959 397 
Q 2419 397 2687 759 
Q 2956 1122 2956 1747 
Q 2956 2369 2687 2733 
Q 2419 3097 1959 3097 
z
M 1959 3584 
Q 2709 3584 3137 3096 
Q 3566 2609 3566 1747 
Q 3566 888 3137 398 
Q 2709 -91 1959 -91 
Q 1206 -91 779 398 
Q 353 888 353 1747 
Q 353 2609 779 3096 
Q 1206 3584 1959 3584 
z
" transform="scale(0.015625)"/>
       <path id="DejaVuSans-72" d="M 2631 2963 
Q 2534 3019 2420 3045 
Q 2306 3072 2169 3072 
Q 1681 3072 1420 2755 
Q 1159 2438 1159 1844 
L 1159 0 
L 581 0 
L 581 3500 
L 1159 3500 
L 1159 2956 
Q 1341 3275 1631 3429 
Q 1922 3584 2338 3584 
Q 2397 3584 2469 3576 
Q 2541 3569 2628 3553 
L 2631 2963 
z
" transform="scale(0.015625)"/>
       <path id="DejaVuSans-6d" d="M 3328 2828 
Q 3544 3216 3844 3400 
Q 4144 3584 4550 3584 
Q 5097 3584 5394 3201 
Q 5691 2819 5691 2113 
L 5691 0 
L 5113 0 
L 5113 2094 
Q 5113 2597 4934 2840 
Q 4756 3084 4391 3084 
Q 3944 3084 3684 2787 
Q 3425 2491 3425 1978 
L 3425 0 
L 2847 0 
L 2847 2094 
Q 2847 2600 2669 2842 
Q 2491 3084 2119 3084 
Q 1678 3084 1418 2786 
Q 1159 2488 1159 1978 
L 1159 0 
L 581 0 
L 581 3500 
L 1159 3500 
L 1159 2956 
Q 1356 3278 1631 3431 
Q 1906 3584 2284 3584 
Q 2666 3584 2933 3390 
Q 3200 3197 3328 2828 
z
" transform="scale(0.015625)"/>
       <path id="DejaVuSans-61" d="M 2194 1759 
Q 1497 1759 1228 1600 
Q 959 1441 959 1056 
Q 959 750 1161 570 
Q 1363 391 1709 391 
Q 2188 391 2477 730 
Q 2766 1069 2766 1631 
L 2766 1759 
L 2194 1759 
z
M 3341 1997 
L 3341 0 
L 2766 0 
L 2766 531 
Q 2569 213 2275 61 
Q 1981 -91 1556 -91 
Q 1019 -91 701 211 
Q 384 513 384 1019 
Q 384 1609 779 1909 
Q 1175 2209 1959 2209 
L 2766 2209 
L 2766 2266 
Q 2766 2663 2505 2880 
Q 2244 3097 1772 3097 
Q 1472 3097 1187 3025 
Q 903 2953 641 2809 
L 641 3341 
Q 956 3463 1253 3523 
Q 1550 3584 1831 3584 
Q 2591 3584 2966 3190 
Q 3341 2797 3341 1997 
z
" transform="scale(0.015625)"/>
       <path id="DejaVuSans-28" d="M 1984 4856 
Q 1566 4138 1362 3434 
Q 1159 2731 1159 2009 
Q 1159 1288 1364 580 
Q 1569 -128 1984 -844 
L 1484 -844 
Q 1016 -109 783 600 
Q 550 1309 550 2009 
Q 550 2706 781 3412 
Q 1013 4119 1484 4856 
L 1984 4856 
z
" transform="scale(0.015625)"/>
       <path id="DejaVuSans-64" d="M 2906 2969 
L 2906 4863 
L 3481 4863 
L 3481 0 
L 2906 0 
L 2906 525 
Q 2725 213 2448 61 
Q 2172 -91 1784 -91 
Q 1150 -91 751 415 
Q 353 922 353 1747 
Q 353 2572 751 3078 
Q 1150 3584 1784 3584 
Q 2172 3584 2448 3432 
Q 2725 3281 2906 2969 
z
M 947 1747 
Q 947 1113 1208 752 
Q 1469 391 1925 391 
Q 2381 391 2643 752 
Q 2906 1113 2906 1747 
Q 2906 2381 2643 2742 
Q 2381 3103 1925 3103 
Q 1469 3103 1208 2742 
Q 947 2381 947 1747 
z
" transform="scale(0.015625)"/>
       <path id="DejaVuSans-29" d="M 513 4856 
L 1013 4856 
Q 1481 4119 1714 3412 
Q 1947 2706 1947 2009 
Q 1947 1309 1714 600 
Q 1481 -109 1013 -844 
L 513 -844 
Q 928 -128 1133 580 
Q 1338 1288 1338 2009 
Q 1338 2731 1133 3434 
Q 928 4138 513 4856 
z
" transform="scale(0.015625)"/>
      </defs>
      <use xlink:href="#DejaVuSans-41"/>
      <use xlink:href="#DejaVuSans-6e" x="68.408203"/>
      <use xlink:href="#DejaVuSans-67" x="131.787109"/>
      <use xlink:href="#DejaVuSans-6c" x="195.263672"/>
      <use xlink:href="#DejaVuSans-65" x="223.046875"/>
      <use xlink:href="#DejaVuSans-20" x="284.570312"/>
      <use xlink:href="#DejaVuSans-77" x="316.357422"/>
      <use xlink:href="#DejaVuSans-69" x="398.144531"/>
      <use xlink:href="#DejaVuSans-74" x="425.927734"/>
      <use xlink:href="#DejaVuSans-68" x="465.136719"/>
      <use xlink:href="#DejaVuSans-20" x="528.515625"/>
      <use xlink:href="#DejaVuSans-6e" x="560.302734"/>
      <use xlink:href="#DejaVuSans-6f" x="623.681641"/>
      <use xlink:href="#DejaVuSans-72" x="684.863281"/>
      <use xlink:href="#DejaVuSans-6d" x="724.226562"/>
      <use xlink:href="#DejaVuSans-61" x="821.638672"/>
      <use xlink:href="#DejaVuSans-6c" x="882.917969"/>
      <use xlink:href="#DejaVuSans-20" x="910.701172"/>
      <use xlink:href="#DejaVuSans-28" x="942.488281"/>
      <use xlink:href="#DejaVuSans-72" x="981.501953"/>
      <use xlink:href="#DejaVuSans-61" x="1022.615234"/>
      <use xlink:href="#DejaVuSans-64" x="1083.894531"/>
      <use xlink:href="#DejaVuSans-29" x="1147.371094"/>
     </g>
    </g>
   </g>
   <g id="matplotlib.axis_2">
    <g id="ytick_1">
     <g id="line2d_10">
      <defs>
       <path id="mb640206beb" d="M 0 0 
L -3.5 0 
" style="stroke: #000000; stroke-width: 0.8"/>
      </defs>
      <g>
       <use xlink:href="#mb640206beb" x="43.78125" y="274.837096" style="stroke: #000000; stroke-width: 0.8"/>
      </g>
     </g>
     <g id="text_11">
      <!-- 0.0 -->
      <g transform="translate(20.878125 278.636315)scale(0.1 -0.1)">
       <use xlink:href="#DejaVuSans-30"/>
       <use xlink:href="#DejaVuSans-2e" x="63.623047"/>
       <use xlink:href="#DejaVuSans-30" x="95.410156"/>
      </g>
     </g>
    </g>
    <g id="ytick_2">
     <g id="line2d_11">
      <g>
       <use xlink:href="#mb640206beb" x="43.78125" y="230.864117" style="stroke: #000000; stroke-width: 0.8"/>
      </g>
     </g>
     <g id="text_12">
      <!-- 0.2 -->
      <g transform="translate(20.878125 234.663335)scale(0.1 -0.1)">
       <use xlink:href="#DejaVuSans-30"/>
       <use xlink:href="#DejaVuSans-2e" x="63.623047"/>
       <use xlink:href="#DejaVuSans-32" x="95.410156"/>
      </g>
     </g>
    </g>
    <g id="ytick_3">
     <g id="line2d_12">
      <g>
       <use xlink:href="#mb640206beb" x="43.78125" y="186.891137" style="stroke: #000000; stroke-width: 0.8"/>
      </g>
     </g>
     <g id="text_13">
      <!-- 0.4 -->
      <g transform="translate(20.878125 190.690356)scale(0.1 -0.1)">
       <use xlink:href="#DejaVuSans-30"/>
       <use xlink:href="#DejaVuSans-2e" x="63.623047"/>
       <use xlink:href="#DejaVuSans-34" x="95.410156"/>
      </g>
     </g>
    </g>
    <g id="ytick_4">
     <g id="line2d_13">
      <g>
       <use xlink:href="#mb640206beb" x="43.78125" y="142.918158" style="stroke: #000000; stroke-width: 0.8"/>
      </g>
     </g>
     <g id="text_14">
      <!-- 0.6 -->
      <g transform="translate(20.878125 146.717376)scale(0.1 -0.1)">
       <use xlink:href="#DejaVuSans-30"/>
       <use xlink:href="#DejaVuSans-2e" x="63.623047"/>
       <use xlink:href="#DejaVuSans-36" x="95.410156"/>
      </g>
     </g>
    </g>
    <g id="ytick_5">
     <g id="line2d_14">
      <g>
       <use xlink:href="#mb640206beb" x="43.78125" y="98.945178" style="stroke: #000000; stroke-width: 0.8"/>
      </g>
     </g>
     <g id="text_15">
      <!-- 0.8 -->
      <g transform="translate(20.878125 102.744397)scale(0.1 -0.1)">
       <use xlink:href="#DejaVuSans-30"/>
       <use xlink:href="#DejaVuSans-2e" x="63.623047"/>
       <use xlink:href="#DejaVuSans-38" x="95.410156"/>
      </g>
     </g>
    </g>
    <g id="ytick_6">
     <g id="line2d_15">
      <g>
       <use xlink:href="#mb640206beb" x="43.78125" y="54.972198" style="stroke: #000000; stroke-width: 0.8"/>
      </g>
     </g>
     <g id="text_16">
      <!-- 1.0 -->
      <g transform="translate(20.878125 58.771417)scale(0.1 -0.1)">
       <use xlink:href="#DejaVuSans-31"/>
       <use xlink:href="#DejaVuSans-2e" x="63.623047"/>
       <use xlink:href="#DejaVuSans-30" x="95.410156"/>
      </g>
     </g>
    </g>
    <g id="ytick_7">
     <g id="line2d_16">
      <g>
       <use xlink:href="#mb640206beb" x="43.78125" y="10.999219" style="stroke: #000000; stroke-width: 0.8"/>
      </g>
     </g>
     <g id="text_17">
      <!-- 1.2 -->
      <g transform="translate(20.878125 14.798437)scale(0.1 -0.1)">
       <use xlink:href="#DejaVuSans-31"/>
       <use xlink:href="#DejaVuSans-2e" x="63.623047"/>
       <use xlink:href="#DejaVuSans-32" x="95.410156"/>
      </g>
     </g>
    </g>
    <g id="text_18">
     <!-- Probability density -->
     <g transform="translate(14.798438 188.131878)rotate(-90)scale(0.1 -0.1)">
      <defs>
       <path id="DejaVuSans-50" d="M 1259 4147 
L 1259 2394 
L 2053 2394 
Q 2494 2394 2734 2622 
Q 2975 2850 2975 3272 
Q 2975 3691 2734 3919 
Q 2494 4147 2053 4147 
L 1259 4147 
z
M 628 4666 
L 2053 4666 
Q 2838 4666 3239 4311 
Q 3641 3956 3641 3272 
Q 3641 2581 3239 2228 
Q 2838 1875 2053 1875 
L 1259 1875 
L 1259 0 
L 628 0 
L 628 4666 
z
" transform="scale(0.015625)"/>
       <path id="DejaVuSans-62" d="M 3116 1747 
Q 3116 2381 2855 2742 
Q 2594 3103 2138 3103 
Q 1681 3103 1420 2742 
Q 1159 2381 1159 1747 
Q 1159 1113 1420 752 
Q 1681 391 2138 391 
Q 2594 391 2855 752 
Q 3116 1113 3116 1747 
z
M 1159 2969 
Q 1341 3281 1617 3432 
Q 1894 3584 2278 3584 
Q 2916 3584 3314 3078 
Q 3713 2572 3713 1747 
Q 3713 922 3314 415 
Q 2916 -91 2278 -91 
Q 1894 -91 1617 61 
Q 1341 213 1159 525 
L 1159 0 
L 581 0 
L 581 4863 
L 1159 4863 
L 1159 2969 
z
" transform="scale(0.015625)"/>
       <path id="DejaVuSans-79" d="M 2059 -325 
Q 1816 -950 1584 -1140 
Q 1353 -1331 966 -1331 
L 506 -1331 
L 506 -850 
L 844 -850 
Q 1081 -850 1212 -737 
Q 1344 -625 1503 -206 
L 1606 56 
L 191 3500 
L 800 3500 
L 1894 763 
L 2988 3500 
L 3597 3500 
L 2059 -325 
z
" transform="scale(0.015625)"/>
       <path id="DejaVuSans-73" d="M 2834 3397 
L 2834 2853 
Q 2591 2978 2328 3040 
Q 2066 3103 1784 3103 
Q 1356 3103 1142 2972 
Q 928 2841 928 2578 
Q 928 2378 1081 2264 
Q 1234 2150 1697 2047 
L 1894 2003 
Q 2506 1872 2764 1633 
Q 3022 1394 3022 966 
Q 3022 478 2636 193 
Q 2250 -91 1575 -91 
Q 1294 -91 989 -36 
Q 684 19 347 128 
L 347 722 
Q 666 556 975 473 
Q 1284 391 1588 391 
Q 1994 391 2212 530 
Q 2431 669 2431 922 
Q 2431 1156 2273 1281 
Q 2116 1406 1581 1522 
L 1381 1569 
Q 847 1681 609 1914 
Q 372 2147 372 2553 
Q 372 3047 722 3315 
Q 1072 3584 1716 3584 
Q 2034 3584 2315 3537 
Q 2597 3491 2834 3397 
z
" transform="scale(0.015625)"/>
      </defs>
      <use xlink:href="#DejaVuSans-50"/>
      <use xlink:href="#DejaVuSans-72" x="58.552734"/>
      <use xlink:href="#DejaVuSans-6f" x="97.416016"/>
      <use xlink:href="#DejaVuSans-62" x="158.597656"/>
      <use xlink:href="#DejaVuSans-61" x="222.074219"/>
      <use xlink:href="#DejaVuSans-62" x="283.353516"/>
      <use xlink:href="#DejaVuSans-69" x="346.830078"/>
      <use xlink:href="#DejaVuSans-6c" x="374.613281"/>
      <use xlink:href="#DejaVuSans-69" x="402.396484"/>
      <use xlink:href="#DejaVuSans-74" x="430.179688"/>
      <use xlink:href="#DejaVuSans-79" x="469.388672"/>
      <use xlink:href="#DejaVuSans-20" x="528.568359"/>
      <use xlink:href="#DejaVuSans-64" x="560.355469"/>
      <use xlink:href="#DejaVuSans-65" x="623.832031"/>
      <use xlink:href="#DejaVuSans-6e" x="685.355469"/>
      <use xlink:href="#DejaVuSans-73" x="748.734375"/>
      <use xlink:href="#DejaVuSans-69" x="800.833984"/>
      <use xlink:href="#DejaVuSans-74" x="828.617188"/>
      <use xlink:href="#DejaVuSans-79" x="867.826172"/>
     </g>
    </g>
   </g>
   <g id="line2d_17">
    <path d="M 60.013977 274.837096 
L 79.837728 232.918832 
L 90.237073 211.448026 
L 99.01152 193.822291 
L 106.811029 178.641144 
L 113.960578 165.204176 
L 120.460169 153.442288 
L 126.63478 142.712444 
L 132.484411 132.981707 
L 138.009063 124.208294 
L 143.208736 116.343699 
L 148.408408 108.880273 
L 153.283101 102.264469 
L 158.157794 96.032587 
L 162.707507 90.57479 
L 167.257221 85.474093 
L 171.481954 81.066136 
L 175.706688 76.981983 
L 179.606442 73.505308 
L 183.506197 70.31531 
L 187.405951 67.41653 
L 190.980726 65.018676 
L 194.555501 62.871868 
L 198.130275 60.978675 
L 201.70505 59.341364 
L 205.279825 57.961891 
L 208.52962 56.932965 
L 211.779415 56.119515 
L 215.029211 55.522345 
L 218.279006 55.142046 
L 221.528801 54.978993 
L 224.778596 55.033348 
L 228.028392 55.305058 
L 231.278187 55.793853 
L 234.527982 56.49925 
L 237.777777 57.420552 
L 241.027573 58.556848 
L 244.602347 60.053743 
L 248.177122 61.807626 
L 251.751897 63.816397 
L 255.326672 66.077653 
L 258.901447 68.588689 
L 262.801201 71.609336 
L 266.700955 74.919358 
L 270.600709 78.514044 
L 274.825443 82.723574 
L 279.050177 87.254141 
L 283.274911 92.098171 
L 287.824624 97.656084 
L 292.374338 103.557375 
L 297.249031 110.248224 
L 302.448703 117.788339 
L 307.648375 125.725968 
L 313.173027 134.572765 
L 319.022659 144.376244 
L 325.19727 155.177084 
L 331.69686 167.007011 
L 338.52143 179.886494 
L 345.995959 194.465458 
L 354.445427 211.448026 
L 364.194813 231.562201 
L 376.869014 258.258829 
L 384.668523 274.837096 
L 384.668523 274.837096 
" clip-path="url(#p01e5c641f0)" style="fill: none; stroke: #ff7f0e; stroke-width: 1.5; stroke-linecap: square"/>
   </g>
   <g id="patch_203">
    <path d="M 43.78125 274.837096 
L 43.78125 8.725096 
" style="fill: none; stroke: #000000; stroke-width: 0.8; stroke-linejoin: miter; stroke-linecap: square"/>
   </g>
   <g id="patch_204">
    <path d="M 400.90125 274.837096 
L 400.90125 8.725096 
" style="fill: none; stroke: #000000; stroke-width: 0.8; stroke-linejoin: miter; stroke-linecap: square"/>
   </g>
   <g id="patch_205">
    <path d="M 43.78125 274.837096 
L 400.90125 274.837096 
" style="fill: none; stroke: #000000; stroke-width: 0.8; stroke-linejoin: miter; stroke-linecap: square"/>
   </g>
   <g id="patch_206">
    <path d="M 43.78125 8.725096 
L 400.90125 8.725096 
" style="fill: none; stroke: #000000; stroke-width: 0.8; stroke-linejoin: miter; stroke-linecap: square"/>
   </g>
  </g>
 </g>
 <defs>
  <clipPath id="p01e5c641f0">
   <rect x="43.78125" y="8.725096" width="357.12" height="266.112"/>
  </clipPath>
 </defs>
</svg>
