<?xml version="1.0" encoding="utf-8" standalone="no"?>
<!DOCTYPE svg PUBLIC "-//W3C//DTD SVG 1.1//EN"
  "http://www.w3.org/Graphics/SVG/1.1/DTD/svg11.dtd">
<svg xmlns:xlink="http://www.w3.org/1999/xlink" width="408.10125pt" height="310.86825pt" viewBox="0 0 408.10125 310.86825" xmlns="http://www.w3.org/2000/svg" version="1.1">
 <metadata>
  <rdf:RDF xmlns:dc="http://purl.org/dc/elements/1.1/" xmlns:cc="http://creativecommons.org/ns#" xmlns:rdf="http://www.w3.org/1999/02/22-rdf-syntax-ns#">
   <cc:Work>
    <dc:type rdf:resource="http://purl.org/dc/dcmitype/StillImage"/>
    <dc:date>2022-04-28T14:43:08.727798</dc:date>
    <dc:format>image/svg+xml</dc:format>
    <dc:creator>
     <cc:Agent>
      <dc:title>Matplotlib v3.5.1, https://matplotlib.org/</dc:title>
     </cc:Agent>
    </dc:creator>
   </cc:Work>
  </rdf:RDF>
 </metadata>
 <defs>
  <style type="text/css">*{stroke-linejoin: round; stroke-linecap: butt}</style>
 </defs>
 <g id="figure_1">
  <g id="patch_1">
   <path d="M 0 310.86825 
L 408.10125 310.86825 
L 408.10125 0 
L 0 0 
z
" style="fill: #ffffff"/>
  </g>
  <g id="axes_1">
   <g id="patch_2">
    <path d="M 43.78125 273.312 
L 400.90125 273.312 
L 400.90125 7.2 
L 43.78125 7.2 
z
" style="fill: #ffffff"/>
   </g>
   <g id="patch_3">
    <path d="M 62.692986 273.312 
L 64.30284 273.312 
L 64.30284 270.412229 
L 62.692986 270.412229 
z
" clip-path="url(#p8a901a03f4)" style="fill: #1f77b4"/>
   </g>
   <g id="patch_4">
    <path d="M 64.30284 273.312 
L 65.912695 273.312 
L 65.912695 271.572137 
L 64.30284 271.572137 
z
" clip-path="url(#p8a901a03f4)" style="fill: #1f77b4"/>
   </g>
   <g id="patch_5">
    <path d="M 65.912695 273.312 
L 67.522549 273.312 
L 67.522549 268.092412 
L 65.912695 268.092412 
z
" clip-path="url(#p8a901a03f4)" style="fill: #1f77b4"/>
   </g>
   <g id="patch_6">
    <path d="M 67.522549 273.312 
L 69.132404 273.312 
L 69.132404 269.832275 
L 67.522549 269.832275 
z
" clip-path="url(#p8a901a03f4)" style="fill: #1f77b4"/>
   </g>
   <g id="patch_7">
    <path d="M 69.132404 273.312 
L 70.742258 273.312 
L 70.742258 264.032732 
L 69.132404 264.032732 
z
" clip-path="url(#p8a901a03f4)" style="fill: #1f77b4"/>
   </g>
   <g id="patch_8">
    <path d="M 70.742258 273.312 
L 72.352113 273.312 
L 72.352113 263.452778 
L 70.742258 263.452778 
z
" clip-path="url(#p8a901a03f4)" style="fill: #1f77b4"/>
   </g>
   <g id="patch_9">
    <path d="M 72.352113 273.312 
L 73.961967 273.312 
L 73.961967 264.612686 
L 72.352113 264.612686 
z
" clip-path="url(#p8a901a03f4)" style="fill: #1f77b4"/>
   </g>
   <g id="patch_10">
    <path d="M 73.961967 273.312 
L 75.571822 273.312 
L 75.571822 264.032732 
L 73.961967 264.032732 
z
" clip-path="url(#p8a901a03f4)" style="fill: #1f77b4"/>
   </g>
   <g id="patch_11">
    <path d="M 75.571822 273.312 
L 77.181676 273.312 
L 77.181676 259.973053 
L 75.571822 259.973053 
z
" clip-path="url(#p8a901a03f4)" style="fill: #1f77b4"/>
   </g>
   <g id="patch_12">
    <path d="M 77.181676 273.312 
L 78.791531 273.312 
L 78.791531 259.393098 
L 77.181676 259.393098 
z
" clip-path="url(#p8a901a03f4)" style="fill: #1f77b4"/>
   </g>
   <g id="patch_13">
    <path d="M 78.791531 273.312 
L 80.401385 273.312 
L 80.401385 262.29287 
L 78.791531 262.29287 
z
" clip-path="url(#p8a901a03f4)" style="fill: #1f77b4"/>
   </g>
   <g id="patch_14">
    <path d="M 80.401385 273.312 
L 82.01124 273.312 
L 82.01124 259.973053 
L 80.401385 259.973053 
z
" clip-path="url(#p8a901a03f4)" style="fill: #1f77b4"/>
   </g>
   <g id="patch_15">
    <path d="M 82.01124 273.312 
L 83.621094 273.312 
L 83.621094 258.23319 
L 82.01124 258.23319 
z
" clip-path="url(#p8a901a03f4)" style="fill: #1f77b4"/>
   </g>
   <g id="patch_16">
    <path d="M 83.621094 273.312 
L 85.230949 273.312 
L 85.230949 252.433648 
L 83.621094 252.433648 
z
" clip-path="url(#p8a901a03f4)" style="fill: #1f77b4"/>
   </g>
   <g id="patch_17">
    <path d="M 85.230949 273.312 
L 86.840803 273.312 
L 86.840803 265.192641 
L 85.230949 265.192641 
z
" clip-path="url(#p8a901a03f4)" style="fill: #1f77b4"/>
   </g>
   <g id="patch_18">
    <path d="M 86.840803 273.312 
L 88.450658 273.312 
L 88.450658 247.214059 
L 86.840803 247.214059 
z
" clip-path="url(#p8a901a03f4)" style="fill: #1f77b4"/>
   </g>
   <g id="patch_19">
    <path d="M 88.450658 273.312 
L 90.060512 273.312 
L 90.060512 257.073281 
L 88.450658 257.073281 
z
" clip-path="url(#p8a901a03f4)" style="fill: #1f77b4"/>
   </g>
   <g id="patch_20">
    <path d="M 90.060512 273.312 
L 91.670367 273.312 
L 91.670367 247.214059 
L 90.060512 247.214059 
z
" clip-path="url(#p8a901a03f4)" style="fill: #1f77b4"/>
   </g>
   <g id="patch_21">
    <path d="M 91.670367 273.312 
L 93.280222 273.312 
L 93.280222 256.493327 
L 91.670367 256.493327 
z
" clip-path="url(#p8a901a03f4)" style="fill: #1f77b4"/>
   </g>
   <g id="patch_22">
    <path d="M 93.280222 273.312 
L 94.890076 273.312 
L 94.890076 247.214059 
L 93.280222 247.214059 
z
" clip-path="url(#p8a901a03f4)" style="fill: #1f77b4"/>
   </g>
   <g id="patch_23">
    <path d="M 94.890076 273.312 
L 96.499931 273.312 
L 96.499931 251.273739 
L 94.890076 251.273739 
z
" clip-path="url(#p8a901a03f4)" style="fill: #1f77b4"/>
   </g>
   <g id="patch_24">
    <path d="M 96.499931 273.312 
L 98.109785 273.312 
L 98.109785 243.734334 
L 96.499931 243.734334 
z
" clip-path="url(#p8a901a03f4)" style="fill: #1f77b4"/>
   </g>
   <g id="patch_25">
    <path d="M 98.109785 273.312 
L 99.71964 273.312 
L 99.71964 252.433648 
L 98.109785 252.433648 
z
" clip-path="url(#p8a901a03f4)" style="fill: #1f77b4"/>
   </g>
   <g id="patch_26">
    <path d="M 99.71964 273.312 
L 101.329494 273.312 
L 101.329494 242.574426 
L 99.71964 242.574426 
z
" clip-path="url(#p8a901a03f4)" style="fill: #1f77b4"/>
   </g>
   <g id="patch_27">
    <path d="M 101.329494 273.312 
L 102.939349 273.312 
L 102.939349 239.674654 
L 101.329494 239.674654 
z
" clip-path="url(#p8a901a03f4)" style="fill: #1f77b4"/>
   </g>
   <g id="patch_28">
    <path d="M 102.939349 273.312 
L 104.549203 273.312 
L 104.549203 248.953922 
L 102.939349 248.953922 
z
" clip-path="url(#p8a901a03f4)" style="fill: #1f77b4"/>
   </g>
   <g id="patch_29">
    <path d="M 104.549203 273.312 
L 106.159058 273.312 
L 106.159058 246.054151 
L 104.549203 246.054151 
z
" clip-path="url(#p8a901a03f4)" style="fill: #1f77b4"/>
   </g>
   <g id="patch_30">
    <path d="M 106.159058 273.312 
L 107.768912 273.312 
L 107.768912 240.254609 
L 106.159058 240.254609 
z
" clip-path="url(#p8a901a03f4)" style="fill: #1f77b4"/>
   </g>
   <g id="patch_31">
    <path d="M 107.768912 273.312 
L 109.378767 273.312 
L 109.378767 240.834563 
L 107.768912 240.834563 
z
" clip-path="url(#p8a901a03f4)" style="fill: #1f77b4"/>
   </g>
   <g id="patch_32">
    <path d="M 109.378767 273.312 
L 110.988621 273.312 
L 110.988621 232.715204 
L 109.378767 232.715204 
z
" clip-path="url(#p8a901a03f4)" style="fill: #1f77b4"/>
   </g>
   <g id="patch_33">
    <path d="M 110.988621 273.312 
L 112.598476 273.312 
L 112.598476 248.953922 
L 110.988621 248.953922 
z
" clip-path="url(#p8a901a03f4)" style="fill: #1f77b4"/>
   </g>
   <g id="patch_34">
    <path d="M 112.598476 273.312 
L 114.20833 273.312 
L 114.20833 237.934792 
L 112.598476 237.934792 
z
" clip-path="url(#p8a901a03f4)" style="fill: #1f77b4"/>
   </g>
   <g id="patch_35">
    <path d="M 114.20833 273.312 
L 115.818185 273.312 
L 115.818185 226.915661 
L 114.20833 226.915661 
z
" clip-path="url(#p8a901a03f4)" style="fill: #1f77b4"/>
   </g>
   <g id="patch_36">
    <path d="M 115.818185 273.312 
L 117.428039 273.312 
L 117.428039 229.815432 
L 115.818185 229.815432 
z
" clip-path="url(#p8a901a03f4)" style="fill: #1f77b4"/>
   </g>
   <g id="patch_37">
    <path d="M 117.428039 273.312 
L 119.037894 273.312 
L 119.037894 229.235478 
L 117.428039 229.235478 
z
" clip-path="url(#p8a901a03f4)" style="fill: #1f77b4"/>
   </g>
   <g id="patch_38">
    <path d="M 119.037894 273.312 
L 120.647749 273.312 
L 120.647749 230.395387 
L 119.037894 230.395387 
z
" clip-path="url(#p8a901a03f4)" style="fill: #1f77b4"/>
   </g>
   <g id="patch_39">
    <path d="M 120.647749 273.312 
L 122.257603 273.312 
L 122.257603 224.595844 
L 120.647749 224.595844 
z
" clip-path="url(#p8a901a03f4)" style="fill: #1f77b4"/>
   </g>
   <g id="patch_40">
    <path d="M 122.257603 273.312 
L 123.867458 273.312 
L 123.867458 235.035021 
L 122.257603 235.035021 
z
" clip-path="url(#p8a901a03f4)" style="fill: #1f77b4"/>
   </g>
   <g id="patch_41">
    <path d="M 123.867458 273.312 
L 125.477312 273.312 
L 125.477312 225.755753 
L 123.867458 225.755753 
z
" clip-path="url(#p8a901a03f4)" style="fill: #1f77b4"/>
   </g>
   <g id="patch_42">
    <path d="M 125.477312 273.312 
L 127.087167 273.312 
L 127.087167 225.755753 
L 125.477312 225.755753 
z
" clip-path="url(#p8a901a03f4)" style="fill: #1f77b4"/>
   </g>
   <g id="patch_43">
    <path d="M 127.087167 273.312 
L 128.697021 273.312 
L 128.697021 226.335707 
L 127.087167 226.335707 
z
" clip-path="url(#p8a901a03f4)" style="fill: #1f77b4"/>
   </g>
   <g id="patch_44">
    <path d="M 128.697021 273.312 
L 130.306876 273.312 
L 130.306876 224.01589 
L 128.697021 224.01589 
z
" clip-path="url(#p8a901a03f4)" style="fill: #1f77b4"/>
   </g>
   <g id="patch_45">
    <path d="M 130.306876 273.312 
L 131.91673 273.312 
L 131.91673 228.655524 
L 130.306876 228.655524 
z
" clip-path="url(#p8a901a03f4)" style="fill: #1f77b4"/>
   </g>
   <g id="patch_46">
    <path d="M 131.91673 273.312 
L 133.526585 273.312 
L 133.526585 221.116119 
L 131.91673 221.116119 
z
" clip-path="url(#p8a901a03f4)" style="fill: #1f77b4"/>
   </g>
   <g id="patch_47">
    <path d="M 133.526585 273.312 
L 135.136439 273.312 
L 135.136439 222.855982 
L 133.526585 222.855982 
z
" clip-path="url(#p8a901a03f4)" style="fill: #1f77b4"/>
   </g>
   <g id="patch_48">
    <path d="M 135.136439 273.312 
L 136.746294 273.312 
L 136.746294 226.335707 
L 135.136439 226.335707 
z
" clip-path="url(#p8a901a03f4)" style="fill: #1f77b4"/>
   </g>
   <g id="patch_49">
    <path d="M 136.746294 273.312 
L 138.356148 273.312 
L 138.356148 212.416805 
L 136.746294 212.416805 
z
" clip-path="url(#p8a901a03f4)" style="fill: #1f77b4"/>
   </g>
   <g id="patch_50">
    <path d="M 138.356148 273.312 
L 139.966003 273.312 
L 139.966003 211.256897 
L 138.356148 211.256897 
z
" clip-path="url(#p8a901a03f4)" style="fill: #1f77b4"/>
   </g>
   <g id="patch_51">
    <path d="M 139.966003 273.312 
L 141.575857 273.312 
L 141.575857 215.896531 
L 139.966003 215.896531 
z
" clip-path="url(#p8a901a03f4)" style="fill: #1f77b4"/>
   </g>
   <g id="patch_52">
    <path d="M 141.575857 273.312 
L 143.185712 273.312 
L 143.185712 216.476485 
L 141.575857 216.476485 
z
" clip-path="url(#p8a901a03f4)" style="fill: #1f77b4"/>
   </g>
   <g id="patch_53">
    <path d="M 143.185712 273.312 
L 144.795566 273.312 
L 144.795566 219.956211 
L 143.185712 219.956211 
z
" clip-path="url(#p8a901a03f4)" style="fill: #1f77b4"/>
   </g>
   <g id="patch_54">
    <path d="M 144.795566 273.312 
L 146.405421 273.312 
L 146.405421 212.416805 
L 144.795566 212.416805 
z
" clip-path="url(#p8a901a03f4)" style="fill: #1f77b4"/>
   </g>
   <g id="patch_55">
    <path d="M 146.405421 273.312 
L 148.015276 273.312 
L 148.015276 206.617263 
L 146.405421 206.617263 
z
" clip-path="url(#p8a901a03f4)" style="fill: #1f77b4"/>
   </g>
   <g id="patch_56">
    <path d="M 148.015276 273.312 
L 149.62513 273.312 
L 149.62513 201.977629 
L 148.015276 201.977629 
z
" clip-path="url(#p8a901a03f4)" style="fill: #1f77b4"/>
   </g>
   <g id="patch_57">
    <path d="M 149.62513 273.312 
L 151.234985 273.312 
L 151.234985 204.297446 
L 149.62513 204.297446 
z
" clip-path="url(#p8a901a03f4)" style="fill: #1f77b4"/>
   </g>
   <g id="patch_58">
    <path d="M 151.234985 273.312 
L 152.844839 273.312 
L 152.844839 208.357126 
L 151.234985 208.357126 
z
" clip-path="url(#p8a901a03f4)" style="fill: #1f77b4"/>
   </g>
   <g id="patch_59">
    <path d="M 152.844839 273.312 
L 154.454694 273.312 
L 154.454694 210.096989 
L 152.844839 210.096989 
z
" clip-path="url(#p8a901a03f4)" style="fill: #1f77b4"/>
   </g>
   <g id="patch_60">
    <path d="M 154.454694 273.312 
L 156.064548 273.312 
L 156.064548 201.977629 
L 154.454694 201.977629 
z
" clip-path="url(#p8a901a03f4)" style="fill: #1f77b4"/>
   </g>
   <g id="patch_61">
    <path d="M 156.064548 273.312 
L 157.674403 273.312 
L 157.674403 199.077858 
L 156.064548 199.077858 
z
" clip-path="url(#p8a901a03f4)" style="fill: #1f77b4"/>
   </g>
   <g id="patch_62">
    <path d="M 157.674403 273.312 
L 159.284257 273.312 
L 159.284257 206.037309 
L 157.674403 206.037309 
z
" clip-path="url(#p8a901a03f4)" style="fill: #1f77b4"/>
   </g>
   <g id="patch_63">
    <path d="M 159.284257 273.312 
L 160.894112 273.312 
L 160.894112 197.91795 
L 159.284257 197.91795 
z
" clip-path="url(#p8a901a03f4)" style="fill: #1f77b4"/>
   </g>
   <g id="patch_64">
    <path d="M 160.894112 273.312 
L 162.503966 273.312 
L 162.503966 190.378545 
L 160.894112 190.378545 
z
" clip-path="url(#p8a901a03f4)" style="fill: #1f77b4"/>
   </g>
   <g id="patch_65">
    <path d="M 162.503966 273.312 
L 164.113821 273.312 
L 164.113821 200.237767 
L 162.503966 200.237767 
z
" clip-path="url(#p8a901a03f4)" style="fill: #1f77b4"/>
   </g>
   <g id="patch_66">
    <path d="M 164.113821 273.312 
L 165.723675 273.312 
L 165.723675 197.337995 
L 164.113821 197.337995 
z
" clip-path="url(#p8a901a03f4)" style="fill: #1f77b4"/>
   </g>
   <g id="patch_67">
    <path d="M 165.723675 273.312 
L 167.33353 273.312 
L 167.33353 197.337995 
L 165.723675 197.337995 
z
" clip-path="url(#p8a901a03f4)" style="fill: #1f77b4"/>
   </g>
   <g id="patch_68">
    <path d="M 167.33353 273.312 
L 168.943384 273.312 
L 168.943384 193.85827 
L 167.33353 193.85827 
z
" clip-path="url(#p8a901a03f4)" style="fill: #1f77b4"/>
   </g>
   <g id="patch_69">
    <path d="M 168.943384 273.312 
L 170.553239 273.312 
L 170.553239 188.638682 
L 168.943384 188.638682 
z
" clip-path="url(#p8a901a03f4)" style="fill: #1f77b4"/>
   </g>
   <g id="patch_70">
    <path d="M 170.553239 273.312 
L 172.163093 273.312 
L 172.163093 195.018178 
L 170.553239 195.018178 
z
" clip-path="url(#p8a901a03f4)" style="fill: #1f77b4"/>
   </g>
   <g id="patch_71">
    <path d="M 172.163093 273.312 
L 173.772948 273.312 
L 173.772948 207.197217 
L 172.163093 207.197217 
z
" clip-path="url(#p8a901a03f4)" style="fill: #1f77b4"/>
   </g>
   <g id="patch_72">
    <path d="M 173.772948 273.312 
L 175.382803 273.312 
L 175.382803 199.657812 
L 173.772948 199.657812 
z
" clip-path="url(#p8a901a03f4)" style="fill: #1f77b4"/>
   </g>
   <g id="patch_73">
    <path d="M 175.382803 273.312 
L 176.992657 273.312 
L 176.992657 182.83914 
L 175.382803 182.83914 
z
" clip-path="url(#p8a901a03f4)" style="fill: #1f77b4"/>
   </g>
   <g id="patch_74">
    <path d="M 176.992657 273.312 
L 178.602512 273.312 
L 178.602512 187.478773 
L 176.992657 187.478773 
z
" clip-path="url(#p8a901a03f4)" style="fill: #1f77b4"/>
   </g>
   <g id="patch_75">
    <path d="M 178.602512 273.312 
L 180.212366 273.312 
L 180.212366 185.738911 
L 178.602512 185.738911 
z
" clip-path="url(#p8a901a03f4)" style="fill: #1f77b4"/>
   </g>
   <g id="patch_76">
    <path d="M 180.212366 273.312 
L 181.822221 273.312 
L 181.822221 181.099277 
L 180.212366 181.099277 
z
" clip-path="url(#p8a901a03f4)" style="fill: #1f77b4"/>
   </g>
   <g id="patch_77">
    <path d="M 181.822221 273.312 
L 183.432075 273.312 
L 183.432075 193.278316 
L 181.822221 193.278316 
z
" clip-path="url(#p8a901a03f4)" style="fill: #1f77b4"/>
   </g>
   <g id="patch_78">
    <path d="M 183.432075 273.312 
L 185.04193 273.312 
L 185.04193 174.139826 
L 183.432075 174.139826 
z
" clip-path="url(#p8a901a03f4)" style="fill: #1f77b4"/>
   </g>
   <g id="patch_79">
    <path d="M 185.04193 273.312 
L 186.651784 273.312 
L 186.651784 188.058728 
L 185.04193 188.058728 
z
" clip-path="url(#p8a901a03f4)" style="fill: #1f77b4"/>
   </g>
   <g id="patch_80">
    <path d="M 186.651784 273.312 
L 188.261639 273.312 
L 188.261639 179.939368 
L 186.651784 179.939368 
z
" clip-path="url(#p8a901a03f4)" style="fill: #1f77b4"/>
   </g>
   <g id="patch_81">
    <path d="M 188.261639 273.312 
L 189.871493 273.312 
L 189.871493 172.399963 
L 188.261639 172.399963 
z
" clip-path="url(#p8a901a03f4)" style="fill: #1f77b4"/>
   </g>
   <g id="patch_82">
    <path d="M 189.871493 273.312 
L 191.481348 273.312 
L 191.481348 168.340284 
L 189.871493 168.340284 
z
" clip-path="url(#p8a901a03f4)" style="fill: #1f77b4"/>
   </g>
   <g id="patch_83">
    <path d="M 191.481348 273.312 
L 193.091202 273.312 
L 193.091202 174.71978 
L 191.481348 174.71978 
z
" clip-path="url(#p8a901a03f4)" style="fill: #1f77b4"/>
   </g>
   <g id="patch_84">
    <path d="M 193.091202 273.312 
L 194.701057 273.312 
L 194.701057 177.619551 
L 193.091202 177.619551 
z
" clip-path="url(#p8a901a03f4)" style="fill: #1f77b4"/>
   </g>
   <g id="patch_85">
    <path d="M 194.701057 273.312 
L 196.310911 273.312 
L 196.310911 181.679231 
L 194.701057 181.679231 
z
" clip-path="url(#p8a901a03f4)" style="fill: #1f77b4"/>
   </g>
   <g id="patch_86">
    <path d="M 196.310911 273.312 
L 197.920766 273.312 
L 197.920766 168.920238 
L 196.310911 168.920238 
z
" clip-path="url(#p8a901a03f4)" style="fill: #1f77b4"/>
   </g>
   <g id="patch_87">
    <path d="M 197.920766 273.312 
L 199.53062 273.312 
L 199.53062 170.660101 
L 197.920766 170.660101 
z
" clip-path="url(#p8a901a03f4)" style="fill: #1f77b4"/>
   </g>
   <g id="patch_88">
    <path d="M 199.53062 273.312 
L 201.140475 273.312 
L 201.140475 177.619551 
L 199.53062 177.619551 
z
" clip-path="url(#p8a901a03f4)" style="fill: #1f77b4"/>
   </g>
   <g id="patch_89">
    <path d="M 201.140475 273.312 
L 202.75033 273.312 
L 202.75033 170.660101 
L 201.140475 170.660101 
z
" clip-path="url(#p8a901a03f4)" style="fill: #1f77b4"/>
   </g>
   <g id="patch_90">
    <path d="M 202.75033 273.312 
L 204.360184 273.312 
L 204.360184 165.440513 
L 202.75033 165.440513 
z
" clip-path="url(#p8a901a03f4)" style="fill: #1f77b4"/>
   </g>
   <g id="patch_91">
    <path d="M 204.360184 273.312 
L 205.970039 273.312 
L 205.970039 163.120696 
L 204.360184 163.120696 
z
" clip-path="url(#p8a901a03f4)" style="fill: #1f77b4"/>
   </g>
   <g id="patch_92">
    <path d="M 205.970039 273.312 
L 207.579893 273.312 
L 207.579893 174.71978 
L 205.970039 174.71978 
z
" clip-path="url(#p8a901a03f4)" style="fill: #1f77b4"/>
   </g>
   <g id="patch_93">
    <path d="M 207.579893 273.312 
L 209.189748 273.312 
L 209.189748 174.139826 
L 207.579893 174.139826 
z
" clip-path="url(#p8a901a03f4)" style="fill: #1f77b4"/>
   </g>
   <g id="patch_94">
    <path d="M 209.189748 273.312 
L 210.799602 273.312 
L 210.799602 171.820009 
L 209.189748 171.820009 
z
" clip-path="url(#p8a901a03f4)" style="fill: #1f77b4"/>
   </g>
   <g id="patch_95">
    <path d="M 210.799602 273.312 
L 212.409457 273.312 
L 212.409457 170.080146 
L 210.799602 170.080146 
z
" clip-path="url(#p8a901a03f4)" style="fill: #1f77b4"/>
   </g>
   <g id="patch_96">
    <path d="M 212.409457 273.312 
L 214.019311 273.312 
L 214.019311 165.440513 
L 212.409457 165.440513 
z
" clip-path="url(#p8a901a03f4)" style="fill: #1f77b4"/>
   </g>
   <g id="patch_97">
    <path d="M 214.019311 273.312 
L 215.629166 273.312 
L 215.629166 161.960787 
L 214.019311 161.960787 
z
" clip-path="url(#p8a901a03f4)" style="fill: #1f77b4"/>
   </g>
   <g id="patch_98">
    <path d="M 215.629166 273.312 
L 217.23902 273.312 
L 217.23902 160.800879 
L 215.629166 160.800879 
z
" clip-path="url(#p8a901a03f4)" style="fill: #1f77b4"/>
   </g>
   <g id="patch_99">
    <path d="M 217.23902 273.312 
L 218.848875 273.312 
L 218.848875 162.540741 
L 217.23902 162.540741 
z
" clip-path="url(#p8a901a03f4)" style="fill: #1f77b4"/>
   </g>
   <g id="patch_100">
    <path d="M 218.848875 273.312 
L 220.458729 273.312 
L 220.458729 157.321153 
L 218.848875 157.321153 
z
" clip-path="url(#p8a901a03f4)" style="fill: #1f77b4"/>
   </g>
   <g id="patch_101">
    <path d="M 220.458729 273.312 
L 222.068584 273.312 
L 222.068584 175.299735 
L 220.458729 175.299735 
z
" clip-path="url(#p8a901a03f4)" style="fill: #1f77b4"/>
   </g>
   <g id="patch_102">
    <path d="M 222.068584 273.312 
L 223.678438 273.312 
L 223.678438 149.201794 
L 222.068584 149.201794 
z
" clip-path="url(#p8a901a03f4)" style="fill: #1f77b4"/>
   </g>
   <g id="patch_103">
    <path d="M 223.678438 273.312 
L 225.288293 273.312 
L 225.288293 156.161245 
L 223.678438 156.161245 
z
" clip-path="url(#p8a901a03f4)" style="fill: #1f77b4"/>
   </g>
   <g id="patch_104">
    <path d="M 225.288293 273.312 
L 226.898147 273.312 
L 226.898147 168.920238 
L 225.288293 168.920238 
z
" clip-path="url(#p8a901a03f4)" style="fill: #1f77b4"/>
   </g>
   <g id="patch_105">
    <path d="M 226.898147 273.312 
L 228.508002 273.312 
L 228.508002 156.741199 
L 226.898147 156.741199 
z
" clip-path="url(#p8a901a03f4)" style="fill: #1f77b4"/>
   </g>
   <g id="patch_106">
    <path d="M 228.508002 273.312 
L 230.117857 273.312 
L 230.117857 158.481062 
L 228.508002 158.481062 
z
" clip-path="url(#p8a901a03f4)" style="fill: #1f77b4"/>
   </g>
   <g id="patch_107">
    <path d="M 230.117857 273.312 
L 231.727711 273.312 
L 231.727711 145.142114 
L 230.117857 145.142114 
z
" clip-path="url(#p8a901a03f4)" style="fill: #1f77b4"/>
   </g>
   <g id="patch_108">
    <path d="M 231.727711 273.312 
L 233.337566 273.312 
L 233.337566 157.321153 
L 231.727711 157.321153 
z
" clip-path="url(#p8a901a03f4)" style="fill: #1f77b4"/>
   </g>
   <g id="patch_109">
    <path d="M 233.337566 273.312 
L 234.94742 273.312 
L 234.94742 141.082435 
L 233.337566 141.082435 
z
" clip-path="url(#p8a901a03f4)" style="fill: #1f77b4"/>
   </g>
   <g id="patch_110">
    <path d="M 234.94742 273.312 
L 236.557275 273.312 
L 236.557275 153.841428 
L 234.94742 153.841428 
z
" clip-path="url(#p8a901a03f4)" style="fill: #1f77b4"/>
   </g>
   <g id="patch_111">
    <path d="M 236.557275 273.312 
L 238.167129 273.312 
L 238.167129 145.722069 
L 236.557275 145.722069 
z
" clip-path="url(#p8a901a03f4)" style="fill: #1f77b4"/>
   </g>
   <g id="patch_112">
    <path d="M 238.167129 273.312 
L 239.776984 273.312 
L 239.776984 143.982206 
L 238.167129 143.982206 
z
" clip-path="url(#p8a901a03f4)" style="fill: #1f77b4"/>
   </g>
   <g id="patch_113">
    <path d="M 239.776984 273.312 
L 241.386838 273.312 
L 241.386838 141.082435 
L 239.776984 141.082435 
z
" clip-path="url(#p8a901a03f4)" style="fill: #1f77b4"/>
   </g>
   <g id="patch_114">
    <path d="M 241.386838 273.312 
L 242.996693 273.312 
L 242.996693 152.681519 
L 241.386838 152.681519 
z
" clip-path="url(#p8a901a03f4)" style="fill: #1f77b4"/>
   </g>
   <g id="patch_115">
    <path d="M 242.996693 273.312 
L 244.606547 273.312 
L 244.606547 150.941657 
L 242.996693 150.941657 
z
" clip-path="url(#p8a901a03f4)" style="fill: #1f77b4"/>
   </g>
   <g id="patch_116">
    <path d="M 244.606547 273.312 
L 246.216402 273.312 
L 246.216402 139.342572 
L 244.606547 139.342572 
z
" clip-path="url(#p8a901a03f4)" style="fill: #1f77b4"/>
   </g>
   <g id="patch_117">
    <path d="M 246.216402 273.312 
L 247.826256 273.312 
L 247.826256 153.261474 
L 246.216402 153.261474 
z
" clip-path="url(#p8a901a03f4)" style="fill: #1f77b4"/>
   </g>
   <g id="patch_118">
    <path d="M 247.826256 273.312 
L 249.436111 273.312 
L 249.436111 132.383121 
L 247.826256 132.383121 
z
" clip-path="url(#p8a901a03f4)" style="fill: #1f77b4"/>
   </g>
   <g id="patch_119">
    <path d="M 249.436111 273.312 
L 251.045965 273.312 
L 251.045965 145.142114 
L 249.436111 145.142114 
z
" clip-path="url(#p8a901a03f4)" style="fill: #1f77b4"/>
   </g>
   <g id="patch_120">
    <path d="M 251.045965 273.312 
L 252.65582 273.312 
L 252.65582 134.122984 
L 251.045965 134.122984 
z
" clip-path="url(#p8a901a03f4)" style="fill: #1f77b4"/>
   </g>
   <g id="patch_121">
    <path d="M 252.65582 273.312 
L 254.265674 273.312 
L 254.265674 150.941657 
L 252.65582 150.941657 
z
" clip-path="url(#p8a901a03f4)" style="fill: #1f77b4"/>
   </g>
   <g id="patch_122">
    <path d="M 254.265674 273.312 
L 255.875529 273.312 
L 255.875529 144.56216 
L 254.265674 144.56216 
z
" clip-path="url(#p8a901a03f4)" style="fill: #1f77b4"/>
   </g>
   <g id="patch_123">
    <path d="M 255.875529 273.312 
L 257.485383 273.312 
L 257.485383 139.922526 
L 255.875529 139.922526 
z
" clip-path="url(#p8a901a03f4)" style="fill: #1f77b4"/>
   </g>
   <g id="patch_124">
    <path d="M 257.485383 273.312 
L 259.095238 273.312 
L 259.095238 118.46422 
L 257.485383 118.46422 
z
" clip-path="url(#p8a901a03f4)" style="fill: #1f77b4"/>
   </g>
   <g id="patch_125">
    <path d="M 259.095238 273.312 
L 260.705093 273.312 
L 260.705093 117.884265 
L 259.095238 117.884265 
z
" clip-path="url(#p8a901a03f4)" style="fill: #1f77b4"/>
   </g>
   <g id="patch_126">
    <path d="M 260.705093 273.312 
L 262.314947 273.312 
L 262.314947 131.223213 
L 260.705093 131.223213 
z
" clip-path="url(#p8a901a03f4)" style="fill: #1f77b4"/>
   </g>
   <g id="patch_127">
    <path d="M 262.314947 273.312 
L 263.924802 273.312 
L 263.924802 130.643259 
L 262.314947 130.643259 
z
" clip-path="url(#p8a901a03f4)" style="fill: #1f77b4"/>
   </g>
   <g id="patch_128">
    <path d="M 263.924802 273.312 
L 265.534656 273.312 
L 265.534656 121.943945 
L 263.924802 121.943945 
z
" clip-path="url(#p8a901a03f4)" style="fill: #1f77b4"/>
   </g>
   <g id="patch_129">
    <path d="M 265.534656 273.312 
L 267.144511 273.312 
L 267.144511 125.42367 
L 265.534656 125.42367 
z
" clip-path="url(#p8a901a03f4)" style="fill: #1f77b4"/>
   </g>
   <g id="patch_130">
    <path d="M 267.144511 273.312 
L 268.754365 273.312 
L 268.754365 128.903396 
L 267.144511 128.903396 
z
" clip-path="url(#p8a901a03f4)" style="fill: #1f77b4"/>
   </g>
   <g id="patch_131">
    <path d="M 268.754365 273.312 
L 270.36422 273.312 
L 270.36422 110.34486 
L 268.754365 110.34486 
z
" clip-path="url(#p8a901a03f4)" style="fill: #1f77b4"/>
   </g>
   <g id="patch_132">
    <path d="M 270.36422 273.312 
L 271.974074 273.312 
L 271.974074 107.445089 
L 270.36422 107.445089 
z
" clip-path="url(#p8a901a03f4)" style="fill: #1f77b4"/>
   </g>
   <g id="patch_133">
    <path d="M 271.974074 273.312 
L 273.583929 273.312 
L 273.583929 130.643259 
L 271.974074 130.643259 
z
" clip-path="url(#p8a901a03f4)" style="fill: #1f77b4"/>
   </g>
   <g id="patch_134">
    <path d="M 273.583929 273.312 
L 275.193783 273.312 
L 275.193783 122.523899 
L 273.583929 122.523899 
z
" clip-path="url(#p8a901a03f4)" style="fill: #1f77b4"/>
   </g>
   <g id="patch_135">
    <path d="M 275.193783 273.312 
L 276.803638 273.312 
L 276.803638 97.005913 
L 275.193783 97.005913 
z
" clip-path="url(#p8a901a03f4)" style="fill: #1f77b4"/>
   </g>
   <g id="patch_136">
    <path d="M 276.803638 273.312 
L 278.413492 273.312 
L 278.413492 106.285181 
L 276.803638 106.285181 
z
" clip-path="url(#p8a901a03f4)" style="fill: #1f77b4"/>
   </g>
   <g id="patch_137">
    <path d="M 278.413492 273.312 
L 280.023347 273.312 
L 280.023347 117.304311 
L 278.413492 117.304311 
z
" clip-path="url(#p8a901a03f4)" style="fill: #1f77b4"/>
   </g>
   <g id="patch_138">
    <path d="M 280.023347 273.312 
L 281.633201 273.312 
L 281.633201 117.304311 
L 280.023347 117.304311 
z
" clip-path="url(#p8a901a03f4)" style="fill: #1f77b4"/>
   </g>
   <g id="patch_139">
    <path d="M 281.633201 273.312 
L 283.243056 273.312 
L 283.243056 98.745776 
L 281.633201 98.745776 
z
" clip-path="url(#p8a901a03f4)" style="fill: #1f77b4"/>
   </g>
   <g id="patch_140">
    <path d="M 283.243056 273.312 
L 284.85291 273.312 
L 284.85291 128.903396 
L 283.243056 128.903396 
z
" clip-path="url(#p8a901a03f4)" style="fill: #1f77b4"/>
   </g>
   <g id="patch_141">
    <path d="M 284.85291 273.312 
L 286.462765 273.312 
L 286.462765 101.065593 
L 284.85291 101.065593 
z
" clip-path="url(#p8a901a03f4)" style="fill: #1f77b4"/>
   </g>
   <g id="patch_142">
    <path d="M 286.462765 273.312 
L 288.07262 273.312 
L 288.07262 113.244632 
L 286.462765 113.244632 
z
" clip-path="url(#p8a901a03f4)" style="fill: #1f77b4"/>
   </g>
   <g id="patch_143">
    <path d="M 288.07262 273.312 
L 289.682474 273.312 
L 289.682474 108.025043 
L 288.07262 108.025043 
z
" clip-path="url(#p8a901a03f4)" style="fill: #1f77b4"/>
   </g>
   <g id="patch_144">
    <path d="M 289.682474 273.312 
L 291.292329 273.312 
L 291.292329 109.764906 
L 289.682474 109.764906 
z
" clip-path="url(#p8a901a03f4)" style="fill: #1f77b4"/>
   </g>
   <g id="patch_145">
    <path d="M 291.292329 273.312 
L 292.902183 273.312 
L 292.902183 113.244632 
L 291.292329 113.244632 
z
" clip-path="url(#p8a901a03f4)" style="fill: #1f77b4"/>
   </g>
   <g id="patch_146">
    <path d="M 292.902183 273.312 
L 294.512038 273.312 
L 294.512038 109.764906 
L 292.902183 109.764906 
z
" clip-path="url(#p8a901a03f4)" style="fill: #1f77b4"/>
   </g>
   <g id="patch_147">
    <path d="M 294.512038 273.312 
L 296.121892 273.312 
L 296.121892 111.504769 
L 294.512038 111.504769 
z
" clip-path="url(#p8a901a03f4)" style="fill: #1f77b4"/>
   </g>
   <g id="patch_148">
    <path d="M 296.121892 273.312 
L 297.731747 273.312 
L 297.731747 110.34486 
L 296.121892 110.34486 
z
" clip-path="url(#p8a901a03f4)" style="fill: #1f77b4"/>
   </g>
   <g id="patch_149">
    <path d="M 297.731747 273.312 
L 299.341601 273.312 
L 299.341601 103.965364 
L 297.731747 103.965364 
z
" clip-path="url(#p8a901a03f4)" style="fill: #1f77b4"/>
   </g>
   <g id="patch_150">
    <path d="M 299.341601 273.312 
L 300.951456 273.312 
L 300.951456 105.705227 
L 299.341601 105.705227 
z
" clip-path="url(#p8a901a03f4)" style="fill: #1f77b4"/>
   </g>
   <g id="patch_151">
    <path d="M 300.951456 273.312 
L 302.56131 273.312 
L 302.56131 98.165822 
L 300.951456 98.165822 
z
" clip-path="url(#p8a901a03f4)" style="fill: #1f77b4"/>
   </g>
   <g id="patch_152">
    <path d="M 302.56131 273.312 
L 304.171165 273.312 
L 304.171165 116.144403 
L 302.56131 116.144403 
z
" clip-path="url(#p8a901a03f4)" style="fill: #1f77b4"/>
   </g>
   <g id="patch_153">
    <path d="M 304.171165 273.312 
L 305.781019 273.312 
L 305.781019 122.523899 
L 304.171165 122.523899 
z
" clip-path="url(#p8a901a03f4)" style="fill: #1f77b4"/>
   </g>
   <g id="patch_154">
    <path d="M 305.781019 273.312 
L 307.390874 273.312 
L 307.390874 104.545318 
L 305.781019 104.545318 
z
" clip-path="url(#p8a901a03f4)" style="fill: #1f77b4"/>
   </g>
   <g id="patch_155">
    <path d="M 307.390874 273.312 
L 309.000728 273.312 
L 309.000728 109.764906 
L 307.390874 109.764906 
z
" clip-path="url(#p8a901a03f4)" style="fill: #1f77b4"/>
   </g>
   <g id="patch_156">
    <path d="M 309.000728 273.312 
L 310.610583 273.312 
L 310.610583 81.347149 
L 309.000728 81.347149 
z
" clip-path="url(#p8a901a03f4)" style="fill: #1f77b4"/>
   </g>
   <g id="patch_157">
    <path d="M 310.610583 273.312 
L 312.220437 273.312 
L 312.220437 103.38541 
L 310.610583 103.38541 
z
" clip-path="url(#p8a901a03f4)" style="fill: #1f77b4"/>
   </g>
   <g id="patch_158">
    <path d="M 312.220437 273.312 
L 313.830292 273.312 
L 313.830292 97.585867 
L 312.220437 97.585867 
z
" clip-path="url(#p8a901a03f4)" style="fill: #1f77b4"/>
   </g>
   <g id="patch_159">
    <path d="M 313.830292 273.312 
L 315.440147 273.312 
L 315.440147 93.526188 
L 313.830292 93.526188 
z
" clip-path="url(#p8a901a03f4)" style="fill: #1f77b4"/>
   </g>
   <g id="patch_160">
    <path d="M 315.440147 273.312 
L 317.050001 273.312 
L 317.050001 94.106142 
L 315.440147 94.106142 
z
" clip-path="url(#p8a901a03f4)" style="fill: #1f77b4"/>
   </g>
   <g id="patch_161">
    <path d="M 317.050001 273.312 
L 318.659856 273.312 
L 318.659856 72.067881 
L 317.050001 72.067881 
z
" clip-path="url(#p8a901a03f4)" style="fill: #1f77b4"/>
   </g>
   <g id="patch_162">
    <path d="M 318.659856 273.312 
L 320.26971 273.312 
L 320.26971 95.846005 
L 318.659856 95.846005 
z
" clip-path="url(#p8a901a03f4)" style="fill: #1f77b4"/>
   </g>
   <g id="patch_163">
    <path d="M 320.26971 273.312 
L 321.879565 273.312 
L 321.879565 97.585867 
L 320.26971 97.585867 
z
" clip-path="url(#p8a901a03f4)" style="fill: #1f77b4"/>
   </g>
   <g id="patch_164">
    <path d="M 321.879565 273.312 
L 323.489419 273.312 
L 323.489419 68.008201 
L 321.879565 68.008201 
z
" clip-path="url(#p8a901a03f4)" style="fill: #1f77b4"/>
   </g>
   <g id="patch_165">
    <path d="M 323.489419 273.312 
L 325.099274 273.312 
L 325.099274 85.986783 
L 323.489419 85.986783 
z
" clip-path="url(#p8a901a03f4)" style="fill: #1f77b4"/>
   </g>
   <g id="patch_166">
    <path d="M 325.099274 273.312 
L 326.709128 273.312 
L 326.709128 86.566737 
L 325.099274 86.566737 
z
" clip-path="url(#p8a901a03f4)" style="fill: #1f77b4"/>
   </g>
   <g id="patch_167">
    <path d="M 326.709128 273.312 
L 328.318983 273.312 
L 328.318983 83.666966 
L 326.709128 83.666966 
z
" clip-path="url(#p8a901a03f4)" style="fill: #1f77b4"/>
   </g>
   <g id="patch_168">
    <path d="M 328.318983 273.312 
L 329.928837 273.312 
L 329.928837 81.927103 
L 328.318983 81.927103 
z
" clip-path="url(#p8a901a03f4)" style="fill: #1f77b4"/>
   </g>
   <g id="patch_169">
    <path d="M 329.928837 273.312 
L 331.538692 273.312 
L 331.538692 84.24692 
L 329.928837 84.24692 
z
" clip-path="url(#p8a901a03f4)" style="fill: #1f77b4"/>
   </g>
   <g id="patch_170">
    <path d="M 331.538692 273.312 
L 333.148546 273.312 
L 333.148546 92.946233 
L 331.538692 92.946233 
z
" clip-path="url(#p8a901a03f4)" style="fill: #1f77b4"/>
   </g>
   <g id="patch_171">
    <path d="M 333.148546 273.312 
L 334.758401 273.312 
L 334.758401 89.466508 
L 333.148546 89.466508 
z
" clip-path="url(#p8a901a03f4)" style="fill: #1f77b4"/>
   </g>
   <g id="patch_172">
    <path d="M 334.758401 273.312 
L 336.368255 273.312 
L 336.368255 91.786325 
L 334.758401 91.786325 
z
" clip-path="url(#p8a901a03f4)" style="fill: #1f77b4"/>
   </g>
   <g id="patch_173">
    <path d="M 336.368255 273.312 
L 337.97811 273.312 
L 337.97811 77.287469 
L 336.368255 77.287469 
z
" clip-path="url(#p8a901a03f4)" style="fill: #1f77b4"/>
   </g>
   <g id="patch_174">
    <path d="M 337.97811 273.312 
L 339.587964 273.312 
L 339.587964 58.148979 
L 337.97811 58.148979 
z
" clip-path="url(#p8a901a03f4)" style="fill: #1f77b4"/>
   </g>
   <g id="patch_175">
    <path d="M 339.587964 273.312 
L 341.197819 273.312 
L 341.197819 85.986783 
L 339.587964 85.986783 
z
" clip-path="url(#p8a901a03f4)" style="fill: #1f77b4"/>
   </g>
   <g id="patch_176">
    <path d="M 341.197819 273.312 
L 342.807674 273.312 
L 342.807674 73.227789 
L 341.197819 73.227789 
z
" clip-path="url(#p8a901a03f4)" style="fill: #1f77b4"/>
   </g>
   <g id="patch_177">
    <path d="M 342.807674 273.312 
L 344.417528 273.312 
L 344.417528 77.867423 
L 342.807674 77.867423 
z
" clip-path="url(#p8a901a03f4)" style="fill: #1f77b4"/>
   </g>
   <g id="patch_178">
    <path d="M 344.417528 273.312 
L 346.027383 273.312 
L 346.027383 70.328018 
L 344.417528 70.328018 
z
" clip-path="url(#p8a901a03f4)" style="fill: #1f77b4"/>
   </g>
   <g id="patch_179">
    <path d="M 346.027383 273.312 
L 347.637237 273.312 
L 347.637237 62.208659 
L 346.027383 62.208659 
z
" clip-path="url(#p8a901a03f4)" style="fill: #1f77b4"/>
   </g>
   <g id="patch_180">
    <path d="M 347.637237 273.312 
L 349.247092 273.312 
L 349.247092 57.569025 
L 347.637237 57.569025 
z
" clip-path="url(#p8a901a03f4)" style="fill: #1f77b4"/>
   </g>
   <g id="patch_181">
    <path d="M 349.247092 273.312 
L 350.856946 273.312 
L 350.856946 70.328018 
L 349.247092 70.328018 
z
" clip-path="url(#p8a901a03f4)" style="fill: #1f77b4"/>
   </g>
   <g id="patch_182">
    <path d="M 350.856946 273.312 
L 352.466801 273.312 
L 352.466801 52.349437 
L 350.856946 52.349437 
z
" clip-path="url(#p8a901a03f4)" style="fill: #1f77b4"/>
   </g>
   <g id="patch_183">
    <path d="M 352.466801 273.312 
L 354.076655 273.312 
L 354.076655 86.566737 
L 352.466801 86.566737 
z
" clip-path="url(#p8a901a03f4)" style="fill: #1f77b4"/>
   </g>
   <g id="patch_184">
    <path d="M 354.076655 273.312 
L 355.68651 273.312 
L 355.68651 47.129849 
L 354.076655 47.129849 
z
" clip-path="url(#p8a901a03f4)" style="fill: #1f77b4"/>
   </g>
   <g id="patch_185">
    <path d="M 355.68651 273.312 
L 357.296364 273.312 
L 357.296364 69.16811 
L 355.68651 69.16811 
z
" clip-path="url(#p8a901a03f4)" style="fill: #1f77b4"/>
   </g>
   <g id="patch_186">
    <path d="M 357.296364 273.312 
L 358.906219 273.312 
L 358.906219 65.10843 
L 357.296364 65.10843 
z
" clip-path="url(#p8a901a03f4)" style="fill: #1f77b4"/>
   </g>
   <g id="patch_187">
    <path d="M 358.906219 273.312 
L 360.516073 273.312 
L 360.516073 79.027332 
L 358.906219 79.027332 
z
" clip-path="url(#p8a901a03f4)" style="fill: #1f77b4"/>
   </g>
   <g id="patch_188">
    <path d="M 360.516073 273.312 
L 362.125928 273.312 
L 362.125928 70.907973 
L 360.516073 70.907973 
z
" clip-path="url(#p8a901a03f4)" style="fill: #1f77b4"/>
   </g>
   <g id="patch_189">
    <path d="M 362.125928 273.312 
L 363.735782 273.312 
L 363.735782 51.769483 
L 362.125928 51.769483 
z
" clip-path="url(#p8a901a03f4)" style="fill: #1f77b4"/>
   </g>
   <g id="patch_190">
    <path d="M 363.735782 273.312 
L 365.345637 273.312 
L 365.345637 47.709803 
L 363.735782 47.709803 
z
" clip-path="url(#p8a901a03f4)" style="fill: #1f77b4"/>
   </g>
   <g id="patch_191">
    <path d="M 365.345637 273.312 
L 366.955491 273.312 
L 366.955491 48.289757 
L 365.345637 48.289757 
z
" clip-path="url(#p8a901a03f4)" style="fill: #1f77b4"/>
   </g>
   <g id="patch_192">
    <path d="M 366.955491 273.312 
L 368.565346 273.312 
L 368.565346 48.869712 
L 366.955491 48.869712 
z
" clip-path="url(#p8a901a03f4)" style="fill: #1f77b4"/>
   </g>
   <g id="patch_193">
    <path d="M 368.565346 273.312 
L 370.175201 273.312 
L 370.175201 61.628705 
L 368.565346 61.628705 
z
" clip-path="url(#p8a901a03f4)" style="fill: #1f77b4"/>
   </g>
   <g id="patch_194">
    <path d="M 370.175201 273.312 
L 371.785055 273.312 
L 371.785055 55.249208 
L 370.175201 55.249208 
z
" clip-path="url(#p8a901a03f4)" style="fill: #1f77b4"/>
   </g>
   <g id="patch_195">
    <path d="M 371.785055 273.312 
L 373.39491 273.312 
L 373.39491 74.967652 
L 371.785055 74.967652 
z
" clip-path="url(#p8a901a03f4)" style="fill: #1f77b4"/>
   </g>
   <g id="patch_196">
    <path d="M 373.39491 273.312 
L 375.004764 273.312 
L 375.004764 74.387698 
L 373.39491 74.387698 
z
" clip-path="url(#p8a901a03f4)" style="fill: #1f77b4"/>
   </g>
   <g id="patch_197">
    <path d="M 375.004764 273.312 
L 376.614619 273.312 
L 376.614619 31.471085 
L 375.004764 31.471085 
z
" clip-path="url(#p8a901a03f4)" style="fill: #1f77b4"/>
   </g>
   <g id="patch_198">
    <path d="M 376.614619 273.312 
L 378.224473 273.312 
L 378.224473 51.189529 
L 376.614619 51.189529 
z
" clip-path="url(#p8a901a03f4)" style="fill: #1f77b4"/>
   </g>
   <g id="patch_199">
    <path d="M 378.224473 273.312 
L 379.834328 273.312 
L 379.834328 56.409117 
L 378.224473 56.409117 
z
" clip-path="url(#p8a901a03f4)" style="fill: #1f77b4"/>
   </g>
   <g id="patch_200">
    <path d="M 379.834328 273.312 
L 381.444182 273.312 
L 381.444182 39.590444 
L 379.834328 39.590444 
z
" clip-path="url(#p8a901a03f4)" style="fill: #1f77b4"/>
   </g>
   <g id="patch_201">
    <path d="M 381.444182 273.312 
L 383.054037 273.312 
L 383.054037 46.549895 
L 381.444182 46.549895 
z
" clip-path="url(#p8a901a03f4)" style="fill: #1f77b4"/>
   </g>
   <g id="patch_202">
    <path d="M 383.054037 273.312 
L 384.663891 273.312 
L 384.663891 19.872 
L 383.054037 19.872 
z
" clip-path="url(#p8a901a03f4)" style="fill: #1f77b4"/>
   </g>
   <g id="matplotlib.axis_1">
    <g id="xtick_1">
     <g id="line2d_1">
      <defs>
       <path id="m5523ebedc6" d="M 0 0 
L 0 3.5 
" style="stroke: #000000; stroke-width: 0.8"/>
      </defs>
      <g>
       <use xlink:href="#m5523ebedc6" x="60.013977" y="273.312" style="stroke: #000000; stroke-width: 0.8"/>
      </g>
     </g>
     <g id="text_1">
      <!-- 0.0 -->
      <g transform="translate(52.062415 287.910437)scale(0.1 -0.1)">
       <defs>
        <path id="DejaVuSans-30" d="M 2034 4250 
Q 1547 4250 1301 3770 
Q 1056 3291 1056 2328 
Q 1056 1369 1301 889 
Q 1547 409 2034 409 
Q 2525 409 2770 889 
Q 3016 1369 3016 2328 
Q 3016 3291 2770 3770 
Q 2525 4250 2034 4250 
z
M 2034 4750 
Q 2819 4750 3233 4129 
Q 3647 3509 3647 2328 
Q 3647 1150 3233 529 
Q 2819 -91 2034 -91 
Q 1250 -91 836 529 
Q 422 1150 422 2328 
Q 422 3509 836 4129 
Q 1250 4750 2034 4750 
z
" transform="scale(0.015625)"/>
        <path id="DejaVuSans-2e" d="M 684 794 
L 1344 794 
L 1344 0 
L 684 0 
L 684 794 
z
" transform="scale(0.015625)"/>
       </defs>
       <use xlink:href="#DejaVuSans-30"/>
       <use xlink:href="#DejaVuSans-2e" x="63.623047"/>
       <use xlink:href="#DejaVuSans-30" x="95.410156"/>
      </g>
     </g>
    </g>
    <g id="xtick_2">
     <g id="line2d_2">
      <g>
       <use xlink:href="#m5523ebedc6" x="124.944886" y="273.312" style="stroke: #000000; stroke-width: 0.8"/>
      </g>
     </g>
     <g id="text_2">
      <!-- 0.2 -->
      <g transform="translate(116.993324 287.910437)scale(0.1 -0.1)">
       <defs>
        <path id="DejaVuSans-32" d="M 1228 531 
L 3431 531 
L 3431 0 
L 469 0 
L 469 531 
Q 828 903 1448 1529 
Q 2069 2156 2228 2338 
Q 2531 2678 2651 2914 
Q 2772 3150 2772 3378 
Q 2772 3750 2511 3984 
Q 2250 4219 1831 4219 
Q 1534 4219 1204 4116 
Q 875 4013 500 3803 
L 500 4441 
Q 881 4594 1212 4672 
Q 1544 4750 1819 4750 
Q 2544 4750 2975 4387 
Q 3406 4025 3406 3419 
Q 3406 3131 3298 2873 
Q 3191 2616 2906 2266 
Q 2828 2175 2409 1742 
Q 1991 1309 1228 531 
z
" transform="scale(0.015625)"/>
       </defs>
       <use xlink:href="#DejaVuSans-30"/>
       <use xlink:href="#DejaVuSans-2e" x="63.623047"/>
       <use xlink:href="#DejaVuSans-32" x="95.410156"/>
      </g>
     </g>
    </g>
    <g id="xtick_3">
     <g id="line2d_3">
      <g>
       <use xlink:href="#m5523ebedc6" x="189.875795" y="273.312" style="stroke: #000000; stroke-width: 0.8"/>
      </g>
     </g>
     <g id="text_3">
      <!-- 0.4 -->
      <g transform="translate(181.924233 287.910437)scale(0.1 -0.1)">
       <defs>
        <path id="DejaVuSans-34" d="M 2419 4116 
L 825 1625 
L 2419 1625 
L 2419 4116 
z
M 2253 4666 
L 3047 4666 
L 3047 1625 
L 3713 1625 
L 3713 1100 
L 3047 1100 
L 3047 0 
L 2419 0 
L 2419 1100 
L 313 1100 
L 313 1709 
L 2253 4666 
z
" transform="scale(0.015625)"/>
       </defs>
       <use xlink:href="#DejaVuSans-30"/>
       <use xlink:href="#DejaVuSans-2e" x="63.623047"/>
       <use xlink:href="#DejaVuSans-34" x="95.410156"/>
      </g>
     </g>
    </g>
    <g id="xtick_4">
     <g id="line2d_4">
      <g>
       <use xlink:href="#m5523ebedc6" x="254.806705" y="273.312" style="stroke: #000000; stroke-width: 0.8"/>
      </g>
     </g>
     <g id="text_4">
      <!-- 0.6 -->
      <g transform="translate(246.855142 287.910437)scale(0.1 -0.1)">
       <defs>
        <path id="DejaVuSans-36" d="M 2113 2584 
Q 1688 2584 1439 2293 
Q 1191 2003 1191 1497 
Q 1191 994 1439 701 
Q 1688 409 2113 409 
Q 2538 409 2786 701 
Q 3034 994 3034 1497 
Q 3034 2003 2786 2293 
Q 2538 2584 2113 2584 
z
M 3366 4563 
L 3366 3988 
Q 3128 4100 2886 4159 
Q 2644 4219 2406 4219 
Q 1781 4219 1451 3797 
Q 1122 3375 1075 2522 
Q 1259 2794 1537 2939 
Q 1816 3084 2150 3084 
Q 2853 3084 3261 2657 
Q 3669 2231 3669 1497 
Q 3669 778 3244 343 
Q 2819 -91 2113 -91 
Q 1303 -91 875 529 
Q 447 1150 447 2328 
Q 447 3434 972 4092 
Q 1497 4750 2381 4750 
Q 2619 4750 2861 4703 
Q 3103 4656 3366 4563 
z
" transform="scale(0.015625)"/>
       </defs>
       <use xlink:href="#DejaVuSans-30"/>
       <use xlink:href="#DejaVuSans-2e" x="63.623047"/>
       <use xlink:href="#DejaVuSans-36" x="95.410156"/>
      </g>
     </g>
    </g>
    <g id="xtick_5">
     <g id="line2d_5">
      <g>
       <use xlink:href="#m5523ebedc6" x="319.737614" y="273.312" style="stroke: #000000; stroke-width: 0.8"/>
      </g>
     </g>
     <g id="text_5">
      <!-- 0.8 -->
      <g transform="translate(311.786051 287.910437)scale(0.1 -0.1)">
       <defs>
        <path id="DejaVuSans-38" d="M 2034 2216 
Q 1584 2216 1326 1975 
Q 1069 1734 1069 1313 
Q 1069 891 1326 650 
Q 1584 409 2034 409 
Q 2484 409 2743 651 
Q 3003 894 3003 1313 
Q 3003 1734 2745 1975 
Q 2488 2216 2034 2216 
z
M 1403 2484 
Q 997 2584 770 2862 
Q 544 3141 544 3541 
Q 544 4100 942 4425 
Q 1341 4750 2034 4750 
Q 2731 4750 3128 4425 
Q 3525 4100 3525 3541 
Q 3525 3141 3298 2862 
Q 3072 2584 2669 2484 
Q 3125 2378 3379 2068 
Q 3634 1759 3634 1313 
Q 3634 634 3220 271 
Q 2806 -91 2034 -91 
Q 1263 -91 848 271 
Q 434 634 434 1313 
Q 434 1759 690 2068 
Q 947 2378 1403 2484 
z
M 1172 3481 
Q 1172 3119 1398 2916 
Q 1625 2713 2034 2713 
Q 2441 2713 2670 2916 
Q 2900 3119 2900 3481 
Q 2900 3844 2670 4047 
Q 2441 4250 2034 4250 
Q 1625 4250 1398 4047 
Q 1172 3844 1172 3481 
z
" transform="scale(0.015625)"/>
       </defs>
       <use xlink:href="#DejaVuSans-30"/>
       <use xlink:href="#DejaVuSans-2e" x="63.623047"/>
       <use xlink:href="#DejaVuSans-38" x="95.410156"/>
      </g>
     </g>
    </g>
    <g id="xtick_6">
     <g id="line2d_6">
      <g>
       <use xlink:href="#m5523ebedc6" x="384.668523" y="273.312" style="stroke: #000000; stroke-width: 0.8"/>
      </g>
     </g>
     <g id="text_6">
      <!-- 1.0 -->
      <g transform="translate(376.71696 287.910437)scale(0.1 -0.1)">
       <defs>
        <path id="DejaVuSans-31" d="M 794 531 
L 1825 531 
L 1825 4091 
L 703 3866 
L 703 4441 
L 1819 4666 
L 2450 4666 
L 2450 531 
L 3481 531 
L 3481 0 
L 794 0 
L 794 531 
z
" transform="scale(0.015625)"/>
       </defs>
       <use xlink:href="#DejaVuSans-31"/>
       <use xlink:href="#DejaVuSans-2e" x="63.623047"/>
       <use xlink:href="#DejaVuSans-30" x="95.410156"/>
      </g>
     </g>
    </g>
    <g id="text_7">
     <!-- Propagation direction -->
     <g transform="translate(168.859219 301.588562)scale(0.1 -0.1)">
      <defs>
       <path id="DejaVuSans-50" d="M 1259 4147 
L 1259 2394 
L 2053 2394 
Q 2494 2394 2734 2622 
Q 2975 2850 2975 3272 
Q 2975 3691 2734 3919 
Q 2494 4147 2053 4147 
L 1259 4147 
z
M 628 4666 
L 2053 4666 
Q 2838 4666 3239 4311 
Q 3641 3956 3641 3272 
Q 3641 2581 3239 2228 
Q 2838 1875 2053 1875 
L 1259 1875 
L 1259 0 
L 628 0 
L 628 4666 
z
" transform="scale(0.015625)"/>
       <path id="DejaVuSans-72" d="M 2631 2963 
Q 2534 3019 2420 3045 
Q 2306 3072 2169 3072 
Q 1681 3072 1420 2755 
Q 1159 2438 1159 1844 
L 1159 0 
L 581 0 
L 581 3500 
L 1159 3500 
L 1159 2956 
Q 1341 3275 1631 3429 
Q 1922 3584 2338 3584 
Q 2397 3584 2469 3576 
Q 2541 3569 2628 3553 
L 2631 2963 
z
" transform="scale(0.015625)"/>
       <path id="DejaVuSans-6f" d="M 1959 3097 
Q 1497 3097 1228 2736 
Q 959 2375 959 1747 
Q 959 1119 1226 758 
Q 1494 397 1959 397 
Q 2419 397 2687 759 
Q 2956 1122 2956 1747 
Q 2956 2369 2687 2733 
Q 2419 3097 1959 3097 
z
M 1959 3584 
Q 2709 3584 3137 3096 
Q 3566 2609 3566 1747 
Q 3566 888 3137 398 
Q 2709 -91 1959 -91 
Q 1206 -91 779 398 
Q 353 888 353 1747 
Q 353 2609 779 3096 
Q 1206 3584 1959 3584 
z
" transform="scale(0.015625)"/>
       <path id="DejaVuSans-70" d="M 1159 525 
L 1159 -1331 
L 581 -1331 
L 581 3500 
L 1159 3500 
L 1159 2969 
Q 1341 3281 1617 3432 
Q 1894 3584 2278 3584 
Q 2916 3584 3314 3078 
Q 3713 2572 3713 1747 
Q 3713 922 3314 415 
Q 2916 -91 2278 -91 
Q 1894 -91 1617 61 
Q 1341 213 1159 525 
z
M 3116 1747 
Q 3116 2381 2855 2742 
Q 2594 3103 2138 3103 
Q 1681 3103 1420 2742 
Q 1159 2381 1159 1747 
Q 1159 1113 1420 752 
Q 1681 391 2138 391 
Q 2594 391 2855 752 
Q 3116 1113 3116 1747 
z
" transform="scale(0.015625)"/>
       <path id="DejaVuSans-61" d="M 2194 1759 
Q 1497 1759 1228 1600 
Q 959 1441 959 1056 
Q 959 750 1161 570 
Q 1363 391 1709 391 
Q 2188 391 2477 730 
Q 2766 1069 2766 1631 
L 2766 1759 
L 2194 1759 
z
M 3341 1997 
L 3341 0 
L 2766 0 
L 2766 531 
Q 2569 213 2275 61 
Q 1981 -91 1556 -91 
Q 1019 -91 701 211 
Q 384 513 384 1019 
Q 384 1609 779 1909 
Q 1175 2209 1959 2209 
L 2766 2209 
L 2766 2266 
Q 2766 2663 2505 2880 
Q 2244 3097 1772 3097 
Q 1472 3097 1187 3025 
Q 903 2953 641 2809 
L 641 3341 
Q 956 3463 1253 3523 
Q 1550 3584 1831 3584 
Q 2591 3584 2966 3190 
Q 3341 2797 3341 1997 
z
" transform="scale(0.015625)"/>
       <path id="DejaVuSans-67" d="M 2906 1791 
Q 2906 2416 2648 2759 
Q 2391 3103 1925 3103 
Q 1463 3103 1205 2759 
Q 947 2416 947 1791 
Q 947 1169 1205 825 
Q 1463 481 1925 481 
Q 2391 481 2648 825 
Q 2906 1169 2906 1791 
z
M 3481 434 
Q 3481 -459 3084 -895 
Q 2688 -1331 1869 -1331 
Q 1566 -1331 1297 -1286 
Q 1028 -1241 775 -1147 
L 775 -588 
Q 1028 -725 1275 -790 
Q 1522 -856 1778 -856 
Q 2344 -856 2625 -561 
Q 2906 -266 2906 331 
L 2906 616 
Q 2728 306 2450 153 
Q 2172 0 1784 0 
Q 1141 0 747 490 
Q 353 981 353 1791 
Q 353 2603 747 3093 
Q 1141 3584 1784 3584 
Q 2172 3584 2450 3431 
Q 2728 3278 2906 2969 
L 2906 3500 
L 3481 3500 
L 3481 434 
z
" transform="scale(0.015625)"/>
       <path id="DejaVuSans-74" d="M 1172 4494 
L 1172 3500 
L 2356 3500 
L 2356 3053 
L 1172 3053 
L 1172 1153 
Q 1172 725 1289 603 
Q 1406 481 1766 481 
L 2356 481 
L 2356 0 
L 1766 0 
Q 1100 0 847 248 
Q 594 497 594 1153 
L 594 3053 
L 172 3053 
L 172 3500 
L 594 3500 
L 594 4494 
L 1172 4494 
z
" transform="scale(0.015625)"/>
       <path id="DejaVuSans-69" d="M 603 3500 
L 1178 3500 
L 1178 0 
L 603 0 
L 603 3500 
z
M 603 4863 
L 1178 4863 
L 1178 4134 
L 603 4134 
L 603 4863 
z
" transform="scale(0.015625)"/>
       <path id="DejaVuSans-6e" d="M 3513 2113 
L 3513 0 
L 2938 0 
L 2938 2094 
Q 2938 2591 2744 2837 
Q 2550 3084 2163 3084 
Q 1697 3084 1428 2787 
Q 1159 2491 1159 1978 
L 1159 0 
L 581 0 
L 581 3500 
L 1159 3500 
L 1159 2956 
Q 1366 3272 1645 3428 
Q 1925 3584 2291 3584 
Q 2894 3584 3203 3211 
Q 3513 2838 3513 2113 
z
" transform="scale(0.015625)"/>
       <path id="DejaVuSans-20" transform="scale(0.015625)"/>
       <path id="DejaVuSans-64" d="M 2906 2969 
L 2906 4863 
L 3481 4863 
L 3481 0 
L 2906 0 
L 2906 525 
Q 2725 213 2448 61 
Q 2172 -91 1784 -91 
Q 1150 -91 751 415 
Q 353 922 353 1747 
Q 353 2572 751 3078 
Q 1150 3584 1784 3584 
Q 2172 3584 2448 3432 
Q 2725 3281 2906 2969 
z
M 947 1747 
Q 947 1113 1208 752 
Q 1469 391 1925 391 
Q 2381 391 2643 752 
Q 2906 1113 2906 1747 
Q 2906 2381 2643 2742 
Q 2381 3103 1925 3103 
Q 1469 3103 1208 2742 
Q 947 2381 947 1747 
z
" transform="scale(0.015625)"/>
       <path id="DejaVuSans-65" d="M 3597 1894 
L 3597 1613 
L 953 1613 
Q 991 1019 1311 708 
Q 1631 397 2203 397 
Q 2534 397 2845 478 
Q 3156 559 3463 722 
L 3463 178 
Q 3153 47 2828 -22 
Q 2503 -91 2169 -91 
Q 1331 -91 842 396 
Q 353 884 353 1716 
Q 353 2575 817 3079 
Q 1281 3584 2069 3584 
Q 2775 3584 3186 3129 
Q 3597 2675 3597 1894 
z
M 3022 2063 
Q 3016 2534 2758 2815 
Q 2500 3097 2075 3097 
Q 1594 3097 1305 2825 
Q 1016 2553 972 2059 
L 3022 2063 
z
" transform="scale(0.015625)"/>
       <path id="DejaVuSans-63" d="M 3122 3366 
L 3122 2828 
Q 2878 2963 2633 3030 
Q 2388 3097 2138 3097 
Q 1578 3097 1268 2742 
Q 959 2388 959 1747 
Q 959 1106 1268 751 
Q 1578 397 2138 397 
Q 2388 397 2633 464 
Q 2878 531 3122 666 
L 3122 134 
Q 2881 22 2623 -34 
Q 2366 -91 2075 -91 
Q 1284 -91 818 406 
Q 353 903 353 1747 
Q 353 2603 823 3093 
Q 1294 3584 2113 3584 
Q 2378 3584 2631 3529 
Q 2884 3475 3122 3366 
z
" transform="scale(0.015625)"/>
      </defs>
      <use xlink:href="#DejaVuSans-50"/>
      <use xlink:href="#DejaVuSans-72" x="58.552734"/>
      <use xlink:href="#DejaVuSans-6f" x="97.416016"/>
      <use xlink:href="#DejaVuSans-70" x="158.597656"/>
      <use xlink:href="#DejaVuSans-61" x="222.074219"/>
      <use xlink:href="#DejaVuSans-67" x="283.353516"/>
      <use xlink:href="#DejaVuSans-61" x="346.830078"/>
      <use xlink:href="#DejaVuSans-74" x="408.109375"/>
      <use xlink:href="#DejaVuSans-69" x="447.318359"/>
      <use xlink:href="#DejaVuSans-6f" x="475.101562"/>
      <use xlink:href="#DejaVuSans-6e" x="536.283203"/>
      <use xlink:href="#DejaVuSans-20" x="599.662109"/>
      <use xlink:href="#DejaVuSans-64" x="631.449219"/>
      <use xlink:href="#DejaVuSans-69" x="694.925781"/>
      <use xlink:href="#DejaVuSans-72" x="722.708984"/>
      <use xlink:href="#DejaVuSans-65" x="761.572266"/>
      <use xlink:href="#DejaVuSans-63" x="823.095703"/>
      <use xlink:href="#DejaVuSans-74" x="878.076172"/>
      <use xlink:href="#DejaVuSans-69" x="917.285156"/>
      <use xlink:href="#DejaVuSans-6f" x="945.068359"/>
      <use xlink:href="#DejaVuSans-6e" x="1006.25"/>
     </g>
    </g>
   </g>
   <g id="matplotlib.axis_2">
    <g id="ytick_1">
     <g id="line2d_7">
      <defs>
       <path id="md5d0a64bc5" d="M 0 0 
L -3.5 0 
" style="stroke: #000000; stroke-width: 0.8"/>
      </defs>
      <g>
       <use xlink:href="#md5d0a64bc5" x="43.78125" y="273.312" style="stroke: #000000; stroke-width: 0.8"/>
      </g>
     </g>
     <g id="text_8">
      <!-- 0.0 -->
      <g transform="translate(20.878125 277.111219)scale(0.1 -0.1)">
       <use xlink:href="#DejaVuSans-30"/>
       <use xlink:href="#DejaVuSans-2e" x="63.623047"/>
       <use xlink:href="#DejaVuSans-30" x="95.410156"/>
      </g>
     </g>
    </g>
    <g id="ytick_2">
     <g id="line2d_8">
      <g>
       <use xlink:href="#md5d0a64bc5" x="43.78125" y="215.795975" style="stroke: #000000; stroke-width: 0.8"/>
      </g>
     </g>
     <g id="text_9">
      <!-- 0.5 -->
      <g transform="translate(20.878125 219.595194)scale(0.1 -0.1)">
       <defs>
        <path id="DejaVuSans-35" d="M 691 4666 
L 3169 4666 
L 3169 4134 
L 1269 4134 
L 1269 2991 
Q 1406 3038 1543 3061 
Q 1681 3084 1819 3084 
Q 2600 3084 3056 2656 
Q 3513 2228 3513 1497 
Q 3513 744 3044 326 
Q 2575 -91 1722 -91 
Q 1428 -91 1123 -41 
Q 819 9 494 109 
L 494 744 
Q 775 591 1075 516 
Q 1375 441 1709 441 
Q 2250 441 2565 725 
Q 2881 1009 2881 1497 
Q 2881 1984 2565 2268 
Q 2250 2553 1709 2553 
Q 1456 2553 1204 2497 
Q 953 2441 691 2322 
L 691 4666 
z
" transform="scale(0.015625)"/>
       </defs>
       <use xlink:href="#DejaVuSans-30"/>
       <use xlink:href="#DejaVuSans-2e" x="63.623047"/>
       <use xlink:href="#DejaVuSans-35" x="95.410156"/>
      </g>
     </g>
    </g>
    <g id="ytick_3">
     <g id="line2d_9">
      <g>
       <use xlink:href="#md5d0a64bc5" x="43.78125" y="158.27995" style="stroke: #000000; stroke-width: 0.8"/>
      </g>
     </g>
     <g id="text_10">
      <!-- 1.0 -->
      <g transform="translate(20.878125 162.079169)scale(0.1 -0.1)">
       <use xlink:href="#DejaVuSans-31"/>
       <use xlink:href="#DejaVuSans-2e" x="63.623047"/>
       <use xlink:href="#DejaVuSans-30" x="95.410156"/>
      </g>
     </g>
    </g>
    <g id="ytick_4">
     <g id="line2d_10">
      <g>
       <use xlink:href="#md5d0a64bc5" x="43.78125" y="100.763925" style="stroke: #000000; stroke-width: 0.8"/>
      </g>
     </g>
     <g id="text_11">
      <!-- 1.5 -->
      <g transform="translate(20.878125 104.563143)scale(0.1 -0.1)">
       <use xlink:href="#DejaVuSans-31"/>
       <use xlink:href="#DejaVuSans-2e" x="63.623047"/>
       <use xlink:href="#DejaVuSans-35" x="95.410156"/>
      </g>
     </g>
    </g>
    <g id="ytick_5">
     <g id="line2d_11">
      <g>
       <use xlink:href="#md5d0a64bc5" x="43.78125" y="43.2479" style="stroke: #000000; stroke-width: 0.8"/>
      </g>
     </g>
     <g id="text_12">
      <!-- 2.0 -->
      <g transform="translate(20.878125 47.047118)scale(0.1 -0.1)">
       <use xlink:href="#DejaVuSans-32"/>
       <use xlink:href="#DejaVuSans-2e" x="63.623047"/>
       <use xlink:href="#DejaVuSans-30" x="95.410156"/>
      </g>
     </g>
    </g>
    <g id="text_13">
     <!-- Probability density -->
     <g transform="translate(14.798438 186.606781)rotate(-90)scale(0.1 -0.1)">
      <defs>
       <path id="DejaVuSans-62" d="M 3116 1747 
Q 3116 2381 2855 2742 
Q 2594 3103 2138 3103 
Q 1681 3103 1420 2742 
Q 1159 2381 1159 1747 
Q 1159 1113 1420 752 
Q 1681 391 2138 391 
Q 2594 391 2855 752 
Q 3116 1113 3116 1747 
z
M 1159 2969 
Q 1341 3281 1617 3432 
Q 1894 3584 2278 3584 
Q 2916 3584 3314 3078 
Q 3713 2572 3713 1747 
Q 3713 922 3314 415 
Q 2916 -91 2278 -91 
Q 1894 -91 1617 61 
Q 1341 213 1159 525 
L 1159 0 
L 581 0 
L 581 4863 
L 1159 4863 
L 1159 2969 
z
" transform="scale(0.015625)"/>
       <path id="DejaVuSans-6c" d="M 603 4863 
L 1178 4863 
L 1178 0 
L 603 0 
L 603 4863 
z
" transform="scale(0.015625)"/>
       <path id="DejaVuSans-79" d="M 2059 -325 
Q 1816 -950 1584 -1140 
Q 1353 -1331 966 -1331 
L 506 -1331 
L 506 -850 
L 844 -850 
Q 1081 -850 1212 -737 
Q 1344 -625 1503 -206 
L 1606 56 
L 191 3500 
L 800 3500 
L 1894 763 
L 2988 3500 
L 3597 3500 
L 2059 -325 
z
" transform="scale(0.015625)"/>
       <path id="DejaVuSans-73" d="M 2834 3397 
L 2834 2853 
Q 2591 2978 2328 3040 
Q 2066 3103 1784 3103 
Q 1356 3103 1142 2972 
Q 928 2841 928 2578 
Q 928 2378 1081 2264 
Q 1234 2150 1697 2047 
L 1894 2003 
Q 2506 1872 2764 1633 
Q 3022 1394 3022 966 
Q 3022 478 2636 193 
Q 2250 -91 1575 -91 
Q 1294 -91 989 -36 
Q 684 19 347 128 
L 347 722 
Q 666 556 975 473 
Q 1284 391 1588 391 
Q 1994 391 2212 530 
Q 2431 669 2431 922 
Q 2431 1156 2273 1281 
Q 2116 1406 1581 1522 
L 1381 1569 
Q 847 1681 609 1914 
Q 372 2147 372 2553 
Q 372 3047 722 3315 
Q 1072 3584 1716 3584 
Q 2034 3584 2315 3537 
Q 2597 3491 2834 3397 
z
" transform="scale(0.015625)"/>
      </defs>
      <use xlink:href="#DejaVuSans-50"/>
      <use xlink:href="#DejaVuSans-72" x="58.552734"/>
      <use xlink:href="#DejaVuSans-6f" x="97.416016"/>
      <use xlink:href="#DejaVuSans-62" x="158.597656"/>
      <use xlink:href="#DejaVuSans-61" x="222.074219"/>
      <use xlink:href="#DejaVuSans-62" x="283.353516"/>
      <use xlink:href="#DejaVuSans-69" x="346.830078"/>
      <use xlink:href="#DejaVuSans-6c" x="374.613281"/>
      <use xlink:href="#DejaVuSans-69" x="402.396484"/>
      <use xlink:href="#DejaVuSans-74" x="430.179688"/>
      <use xlink:href="#DejaVuSans-79" x="469.388672"/>
      <use xlink:href="#DejaVuSans-20" x="528.568359"/>
      <use xlink:href="#DejaVuSans-64" x="560.355469"/>
      <use xlink:href="#DejaVuSans-65" x="623.832031"/>
      <use xlink:href="#DejaVuSans-6e" x="685.355469"/>
      <use xlink:href="#DejaVuSans-73" x="748.734375"/>
      <use xlink:href="#DejaVuSans-69" x="800.833984"/>
      <use xlink:href="#DejaVuSans-74" x="828.617188"/>
      <use xlink:href="#DejaVuSans-79" x="867.826172"/>
     </g>
    </g>
   </g>
   <g id="line2d_12">
    <path d="M 60.013977 273.312 
L 384.668523 43.2479 
L 384.668523 43.2479 
" clip-path="url(#p8a901a03f4)" style="fill: none; stroke: #ff7f0e; stroke-width: 1.5; stroke-linecap: square"/>
   </g>
   <g id="patch_203">
    <path d="M 43.78125 273.312 
L 43.78125 7.2 
" style="fill: none; stroke: #000000; stroke-width: 0.8; stroke-linejoin: miter; stroke-linecap: square"/>
   </g>
   <g id="patch_204">
    <path d="M 400.90125 273.312 
L 400.90125 7.2 
" style="fill: none; stroke: #000000; stroke-width: 0.8; stroke-linejoin: miter; stroke-linecap: square"/>
   </g>
   <g id="patch_205">
    <path d="M 43.78125 273.312 
L 400.90125 273.312 
" style="fill: none; stroke: #000000; stroke-width: 0.8; stroke-linejoin: miter; stroke-linecap: square"/>
   </g>
   <g id="patch_206">
    <path d="M 43.78125 7.2 
L 400.90125 7.2 
" style="fill: none; stroke: #000000; stroke-width: 0.8; stroke-linejoin: miter; stroke-linecap: square"/>
   </g>
  </g>
 </g>
 <defs>
  <clipPath id="p8a901a03f4">
   <rect x="43.78125" y="7.2" width="357.12" height="266.112"/>
  </clipPath>
 </defs>
</svg>
